<?xml version="1.0" standalone="no"?>
<!DOCTYPE svg PUBLIC "-//W3C//DTD SVG 20010904//EN"
 "http://www.w3.org/TR/2001/REC-SVG-20010904/DTD/svg10.dtd">
<svg version="1.0" xmlns="http://www.w3.org/2000/svg"
 width="706.000000pt" height="941.000000pt" viewBox="0 0 706.000000 941.000000"
 preserveAspectRatio="xMidYMid meet">

<g transform="translate(0.000000,941.000000) scale(0.100000,-0.100000)"
fill="#000000" stroke="none">
<path d="M5794 9395 c3 -9 11 -46 17 -83 7 -37 19 -75 27 -84 8 -9 12 -23 10
-30 -3 -7 2 -19 9 -27 19 -19 6 -30 -48 -39 l-44 -8 -3 -447 c-1 -246 0 -447
2 -447 2 0 19 6 37 14 25 10 48 12 89 5 40 -6 58 -5 66 4 8 8 15 78 19 197 4
102 9 188 11 192 2 4 -3 22 -12 42 -16 33 -16 36 0 61 21 32 24 163 5 193 -10
16 -9 27 4 55 9 19 17 58 17 86 0 49 1 50 34 57 48 8 56 0 56 -58 0 -29 5 -67
12 -85 10 -28 9 -38 -6 -64 -10 -17 -16 -33 -13 -36 3 -2 -1 -20 -9 -38 -20
-48 -18 -82 5 -90 11 -3 22 -13 25 -21 20 -53 30 77 11 149 l-7 27 61 0 c56 0
76 -10 51 -25 -6 -4 -8 -11 -4 -16 3 -6 5 -47 3 -92 -1 -45 -3 -99 -3 -119 -1
-20 -5 -40 -9 -44 -10 -10 -8 -239 2 -293 5 -24 18 -52 29 -64 18 -18 25 -19
47 -9 14 6 25 18 25 26 0 17 42 15 65 -4 13 -11 15 -8 15 22 0 37 46 100 58
82 13 -18 57 -29 101 -26 l43 3 -7 344 -7 344 25 6 c62 16 61 17 70 -190 4
-112 12 -191 18 -193 6 -3 6 -9 -2 -18 -8 -10 -8 -18 -1 -26 6 -7 10 -24 10
-38 0 -14 4 -53 8 -87 5 -45 3 -63 -5 -63 -6 0 -11 -13 -11 -30 0 -20 5 -30
15 -30 8 0 15 -4 15 -9 0 -5 17 -11 38 -13 39 -5 89 13 98 37 5 11 11 11 39
-1 45 -18 81 -18 89 1 8 23 -3 546 -14 647 -7 58 -7 95 0 114 23 59 -54 72
-111 18 -21 -20 -39 -27 -77 -29 -62 -3 -92 -13 -92 -29 0 -7 -6 -20 -13 -30
-12 -16 -14 -16 -40 5 -28 22 -77 28 -109 14 -10 -4 -18 -3 -18 3 0 5 6 12 14
15 8 3 16 16 18 28 2 19 21 30 103 61 55 21 138 45 185 53 110 19 190 35 213
41 12 4 17 16 17 43 l0 37 -89 12 c-59 8 -272 12 -636 12 -487 0 -546 -2 -541
-15z m566 -266 c0 -6 19 -10 48 -9 66 2 74 1 67 -10 -3 -5 0 -10 7 -10 8 0 4
-8 -8 -18 -19 -14 -37 -50 -39 -74 -1 -25 -16 -11 -36 37 -24 55 -24 56 -59
49 -19 -3 -41 -11 -48 -17 -10 -8 -16 -7 -23 4 -15 23 -10 39 14 49 31 12 77
12 77 -1z m570 -86 c16 -14 17 -20 7 -32 -9 -12 -9 -13 1 -7 7 4 12 2 12 -6 0
-17 -29 -35 -72 -43 -30 -6 -36 -3 -46 20 -13 29 -16 78 -4 89 11 12 80 -2
102 -21z m-1022 -75 c7 -7 12 -39 12 -75 0 -72 -11 -83 -79 -83 -39 0 -41 2
-51 40 -11 42 2 105 25 122 16 12 80 9 93 -4z m519 -35 c-3 -10 -5 -2 -5 17 0
19 2 27 5 18 2 -10 2 -26 0 -35z m-109 -1 c3 -34 -11 -43 -26 -16 -12 21 -3
56 12 51 6 -2 12 -18 14 -35z m-420 -141 c16 -1 15 -32 -3 -67 -13 -25 -13
-30 0 -44 28 -31 18 -47 -31 -55 -59 -8 -84 10 -67 48 9 19 8 29 -2 44 -21 30
-8 62 29 71 17 5 38 8 46 6 8 -1 21 -3 28 -3z m539 -173 c-2 -13 -4 -5 -4 17
-1 22 1 32 4 23 2 -10 2 -28 0 -40z m11 -184 c1 -14 -2 -23 -8 -19 -12 7 -14
45 -2 45 4 0 9 -11 10 -26z"/>
<path d="M5491 9185 c-1 -7 -24 -9 -61 -7 -33 2 -60 -1 -60 -6 0 -5 -16 -8
-35 -7 -19 0 -35 -2 -35 -6 0 -6 -38 -16 -77 -21 -7 -1 -13 -5 -13 -9 0 -4
-21 -6 -47 -4 -29 2 -56 -2 -70 -10 -11 -8 -37 -13 -57 -11 -20 2 -36 0 -36
-5 0 -11 -63 -7 -71 4 -4 5 -10 -4 -13 -20 -11 -40 -35 -58 -84 -61 -31 -2
-44 2 -49 14 -5 13 -7 13 -14 2 -6 -9 -9 -4 -9 15 0 24 3 27 35 27 28 0 35 4
35 20 0 11 -3 20 -7 20 -102 5 -160 4 -170 -3 -9 -6 -13 -5 -13 2 0 7 -5 9
-11 5 -16 -10 -176 -12 -322 -5 -138 8 -266 -1 -277 -19 -4 -6 -11 -10 -16 -9
-5 1 -52 -1 -104 -6 -52 -5 -103 -8 -113 -6 -10 1 -26 -3 -35 -11 -12 -10 -14
-10 -8 0 6 10 1 11 -21 6 -46 -11 -73 -23 -72 -31 3 -21 -3 -31 -25 -41 -26
-12 -36 -1 -36 40 0 19 -4 20 -62 14 -35 -3 -155 -9 -268 -12 -113 -4 -208 -9
-212 -13 -9 -8 11 -101 23 -101 5 0 9 -4 9 -9 0 -6 -16 -7 -35 -4 -23 4 -35 2
-35 -6 0 -12 -36 -15 -43 -3 -3 4 -25 7 -49 7 l-43 0 -1 -51 c-1 -29 -4 -60
-8 -70 -6 -16 9 -476 19 -569 2 -22 4 -67 5 -100 0 -72 11 -95 34 -75 9 7 49
15 89 17 39 2 94 8 120 14 32 8 52 8 58 2 13 -13 55 -5 70 13 14 17 99 19 99
3 0 -8 4 -8 15 1 8 6 19 9 25 5 5 -3 13 1 16 9 4 10 18 16 35 16 18 0 29 5 29
14 0 8 8 13 18 12 12 -1 18 8 21 29 4 30 4 30 11 5 7 -23 8 -23 9 8 1 20 -3
31 -9 27 -6 -4 -10 5 -10 19 0 15 5 25 12 24 18 -4 22 31 5 50 -22 26 -7 148
22 168 21 15 21 19 16 231 -4 176 -2 218 10 229 17 18 30 18 58 0 12 -8 51
-20 86 -27 l64 -12 -34 -11 c-28 -9 -34 -16 -35 -39 -1 -16 5 -31 12 -34 16
-6 20 -133 6 -133 -5 0 -9 -7 -9 -15 0 -8 4 -15 9 -15 4 0 8 -7 8 -15 0 -8 -7
-15 -16 -15 -8 0 -13 -4 -10 -8 2 -4 1 -14 -5 -22 -6 -10 -9 -11 -9 -2 0 25
-20 11 -21 -15 -2 -25 -2 -24 -9 7 -7 31 -7 29 -8 -20 0 -30 2 -49 5 -42 8 20
19 14 21 -14 1 -14 9 -32 17 -40 19 -20 18 -150 -2 -169 -7 -8 -13 -19 -13
-25 0 -6 -4 -8 -10 -5 -6 4 -10 -15 -10 -49 0 -42 4 -56 14 -56 8 0 16 -5 18
-11 6 -18 109 -13 200 10 48 12 93 19 100 15 31 -20 103 8 95 36 -3 10 6 29
19 44 23 24 24 31 22 145 -3 115 8 148 19 62 3 -22 9 -38 13 -36 12 8 19 -52
16 -147 -2 -65 1 -88 10 -88 7 0 16 5 19 10 4 6 10 8 15 5 5 -3 13 3 19 12 8
13 10 14 11 4 0 -11 3 -12 11 -4 15 15 4 44 -14 37 -8 -3 -18 3 -22 13 -7 17
-8 17 -15 -2 -6 -16 -8 -13 -12 18 -2 20 0 43 4 50 5 7 8 0 8 -18 1 -29 1 -29
15 -11 11 14 15 16 15 5 1 -10 4 -10 14 4 9 12 16 14 21 7 3 -5 10 -8 15 -5
12 8 18 -5 24 -55 6 -52 17 -60 76 -60 58 1 80 18 80 63 0 20 5 39 10 42 6 3
10 18 10 33 l1 27 15 -25 c8 -14 13 -17 10 -8 -3 10 -1 20 4 23 8 5 24 -59 25
-100 0 -15 8 -21 33 -23 39 -4 58 9 77 55 14 32 32 39 47 18 11 -15 10 -27 -2
-20 -5 3 -10 -1 -10 -9 0 -9 7 -17 15 -17 8 -1 21 -2 28 -2 30 -2 97 14 97 24
0 6 7 3 16 -5 37 -38 38 -29 17 182 -3 37 -6 69 -5 72 10 56 13 132 4 126 -19
-12 -32 173 -17 261 4 24 11 40 16 37 5 -3 9 7 9 23 1 25 2 24 15 -12 8 -22
15 -52 15 -66 0 -33 10 -43 24 -24 14 19 48 10 64 -16 11 -17 9 -23 -12 -44
-15 -15 -32 -23 -45 -20 -18 3 -21 -1 -23 -33 0 -20 0 -44 1 -52 19 -145 28
-192 34 -180 4 8 4 -1 1 -20 -6 -40 -5 -147 2 -171 3 -11 12 -15 24 -12 16 4
20 0 20 -20 0 -36 35 -57 93 -57 41 0 54 5 85 34 20 19 39 31 42 27 10 -16 56
-20 88 -9 26 10 37 10 53 0 11 -7 33 -11 47 -8 15 2 43 7 63 11 l36 5 5 273
c6 275 3 351 -13 326 -4 -7 -18 -14 -31 -16 -13 -1 -36 -5 -53 -9 -43 -8 -97
-8 -117 1 -13 5 -18 3 -18 -9 0 -13 -30 -23 -44 -13 -2 1 -13 -6 -24 -16 -21
-19 -61 -20 -74 -2 -11 15 -9 53 3 60 5 4 45 8 87 10 42 2 93 6 112 9 19 3 62
8 94 11 33 3 63 8 68 13 13 13 21 205 9 222 -9 12 -12 13 -20 1 -7 -11 -9 -11
-14 0 -3 8 -6 9 -6 4z m-741 -125 c0 -5 -4 -10 -10 -10 -5 0 -10 5 -10 10 0 6
5 10 10 10 6 0 10 -4 10 -10z m-50 -12 c0 -9 4 -8 10 2 8 12 10 11 10 -6 0
-25 -31 -40 -97 -47 -32 -4 -43 -1 -48 11 -9 23 9 35 63 43 26 3 50 7 55 8 4
0 7 -5 7 -11z m-142 -40 c2 -11 -3 -18 -12 -18 -9 0 -16 -4 -16 -8 0 -4 -15
-8 -34 -9 -27 0 -35 4 -40 20 -7 28 10 38 59 35 29 -2 41 -8 43 -20z m-172
-36 c-9 -8 -26 10 -26 26 1 15 2 15 15 -2 8 -11 13 -21 11 -24z m-252 6 c-5
-8 -2 -9 9 -5 11 4 17 1 17 -9 0 -19 -13 -24 -74 -27 -32 -1 -51 2 -53 11 -3
7 5 12 21 12 14 0 26 5 26 11 0 6 7 9 15 6 8 -4 17 -2 20 3 4 6 11 10 16 10 6
0 7 -5 3 -12z m151 -16 c-3 -3 -14 -6 -25 -7 -22 -2 -28 21 -7 28 13 5 41 -13
32 -21z m-1135 -92 c0 -5 -7 -10 -15 -10 -8 0 -15 5 -15 10 0 6 7 10 15 10 8
0 15 -4 15 -10z m1003 4 c11 -4 13 -17 10 -54 -3 -28 0 -51 6 -55 6 -3 11 -15
11 -27 0 -14 5 -18 15 -14 11 4 15 -2 14 -22 0 -22 -2 -24 -8 -8 -7 17 -9 16
-24 -8 -15 -22 -21 -25 -37 -16 -11 6 -20 7 -21 3 -2 -19 -17 46 -18 79 -1 31
2 36 16 31 14 -6 15 -1 10 39 -7 54 -3 63 26 52z m-1106 -20 c-3 -3 -12 -4
-19 -1 -8 3 -5 6 6 6 11 1 17 -2 13 -5z m1802 -99 c0 -43 -3 -54 -9 -40 l-9
20 0 -20 c-1 -17 -3 -17 -11 -5 -5 8 -10 26 -11 40 -1 23 -2 23 -9 -5 -8 -30
-12 -22 -14 27 -1 14 2 24 7 21 5 -3 11 5 14 17 4 16 8 18 14 8 6 -10 9 -8 9
7 0 17 2 17 10 5 5 -8 9 -42 9 -75z m-122 45 c20 0 23 -5 23 -34 0 -24 -4 -34
-14 -32 -25 4 -44 26 -39 46 3 11 0 20 -6 20 -6 0 -11 5 -11 12 0 9 3 9 12 0
7 -7 22 -12 35 -12z m-210 -32 c-3 -7 -5 -2 -5 12 0 14 2 19 5 13 2 -7 2 -19
0 -25z m-188 -35 c2 -1 -2 -10 -10 -20 -8 -9 -9 -14 -3 -10 6 3 11 0 11 -8 0
-8 -3 -13 -5 -10 -3 3 -11 0 -17 -5 -15 -13 -29 31 -20 61 6 17 9 18 23 7 10
-7 19 -14 21 -15z m901 -159 c4 -57 -1 -143 -7 -119 -7 27 -23 43 -24 25 0 -8
-4 -3 -9 11 -9 30 -2 79 11 79 5 0 9 19 10 43 0 32 2 37 9 21 4 -11 9 -38 10
-60z m-232 -21 c-1 -44 -2 -49 -5 -20 -2 20 -8 35 -14 32 -13 -9 -11 19 3 33
7 7 13 12 15 12 2 0 2 -26 1 -57z m19 -10 c-3 -10 -5 -2 -5 17 0 19 2 27 5 18
2 -10 2 -26 0 -35z m-1550 -45 c30 -33 31 -158 2 -184 -18 -16 -21 -16 -35 -2
-20 20 -31 156 -15 186 15 28 22 28 48 0z m1282 -12 c-1 -18 -2 -18 -6 -3 -3
11 -11 16 -19 13 -8 -3 -14 1 -14 8 0 9 7 12 20 9 13 -3 20 -13 19 -27z m-520
-38 c-1 -55 -5 -50 -11 15 -2 20 0 37 4 37 4 0 7 -24 7 -52z m-249 -97 c0 -5
-9 -7 -20 -4 -11 3 -20 7 -20 9 0 2 9 4 20 4 11 0 20 -4 20 -9z m-3 -53 c-3
-8 -6 -5 -6 6 -1 11 2 17 5 13 3 -3 4 -12 1 -19z"/>
<path d="M4731 8764 c0 -11 3 -14 6 -6 3 7 2 16 -1 19 -3 4 -6 -2 -5 -13z"/>
<path d="M7040 8978 c-8 -44 -12 -424 -5 -518 4 -61 4 -60 15 -60 6 0 10 103
10 290 0 187 -4 290 -10 290 -5 0 -10 -1 -10 -2z"/>
<path d="M1896 8928 c4 -13 17 -40 30 -60 13 -20 26 -48 30 -62 3 -15 10 -29
15 -32 5 -3 9 -14 9 -25 0 -10 10 -41 22 -67 13 -26 23 -51 23 -57 3 -30 19
-65 31 -65 21 0 17 -20 -3 -21 -11 0 -13 -3 -5 -6 6 -2 12 -13 12 -23 0 -10 5
-22 10 -25 6 -3 10 -21 10 -39 0 -24 -6 -36 -22 -44 -36 -17 -99 -32 -141 -32
-31 0 -39 -4 -47 -26 -11 -29 -13 -394 -2 -409 8 -13 111 -13 131 -1 8 5 30
10 49 12 53 4 65 23 68 106 2 40 5 128 8 195 4 110 2 125 -15 147 -24 31 -24
53 0 61 25 7 62 -15 58 -35 -1 -9 6 -15 18 -15 14 0 21 8 23 25 5 32 30 60 54
60 11 0 26 -13 36 -31 18 -32 18 -32 97 -13 17 4 37 13 46 20 8 8 31 19 50 26
42 14 68 45 69 80 0 14 6 28 13 31 6 2 12 16 12 32 0 23 8 32 50 54 28 14 53
31 58 36 10 13 -2 134 -16 160 -6 11 -12 15 -14 8 -3 -8 -13 -9 -36 -2 -18 5
-106 12 -197 15 -91 3 -176 7 -190 10 -14 2 -59 7 -100 10 -41 3 -93 9 -115
14 -22 5 -62 10 -88 10 -46 0 -48 -1 -41 -22z"/>
<path d="M2995 8920 c3 -5 8 -10 11 -10 2 0 4 5 4 10 0 6 -5 10 -11 10 -5 0
-7 -4 -4 -10z"/>
<path d="M4911 8744 c0 -11 3 -14 6 -6 3 7 2 16 -1 19 -3 4 -6 -2 -5 -13z"/>
<path d="M6103 8705 c-3 -10 -15 -27 -25 -37 -15 -15 -18 -36 -20 -110 0 -51
-1 -100 0 -108 0 -8 -3 -17 -8 -20 -5 -3 -11 -38 -13 -77 l-5 -72 44 -23 c39
-19 47 -20 55 -8 8 13 6 239 -4 422 -3 43 -14 58 -24 33z"/>
<path d="M2289 8325 c-1 -14 -2 -31 -3 -37 -1 -18 33 -22 39 -5 7 17 -11 67
-25 67 -5 0 -11 -11 -11 -25z"/>
<path d="M6913 8209 c-6 -6 -40 -12 -75 -14 -64 -3 -138 -22 -138 -36 0 -23
131 -27 154 -4 17 18 40 20 30 4 -5 -9 8 -10 45 -7 28 3 54 7 56 10 3 3 1 17
-4 32 -11 27 -47 36 -68 15z"/>
<path d="M7038 8173 c7 -3 16 -2 19 1 4 3 -2 6 -13 5 -11 0 -14 -3 -6 -6z"/>
<path d="M2278 8157 c-15 -12 -15 -14 3 -26 23 -14 59 -6 59 14 0 7 -7 16 -16
19 -21 8 -26 7 -46 -7z"/>
<path d="M6407 8141 c-44 -21 -54 -30 -45 -39 15 -15 19 -15 55 -1 15 6 61 11
100 11 75 -1 88 6 79 36 -5 13 -19 17 -68 19 -51 1 -74 -4 -121 -26z"/>
<path d="M6103 8107 c-4 -8 -28 -22 -53 -31 l-45 -16 65 3 c61 2 65 3 65 26 0
28 -19 39 -32 18z"/>
<path d="M6232 8108 c-20 -20 -14 -28 19 -28 41 0 77 19 58 31 -20 13 -63 11
-77 -3z"/>
<path d="M5875 8078 c-22 -5 -57 -7 -78 -5 -39 5 -61 -13 -41 -33 10 -9 200 3
210 13 10 10 -16 37 -35 36 -9 -1 -34 -5 -56 -11z"/>
<path d="M2290 8026 c0 -44 16 -55 31 -22 14 29 6 56 -16 56 -10 0 -15 -10
-15 -34z"/>
<path d="M4912 7983 c-10 -4 -9 -9 4 -24 23 -25 36 -24 32 3 -3 23 -15 30 -36
21z"/>
<path d="M4797 7965 c-3 -7 -3 -15 0 -18 7 -7 33 3 33 13 0 14 -28 19 -33 5z"/>
<path d="M4656 7952 c-2 -4 -1 -14 5 -22 7 -12 9 -10 9 8 0 23 -5 28 -14 14z"/>
<path d="M4453 7938 c-4 -7 -16 -13 -25 -13 -35 0 -22 -20 13 -21 21 -1 44 -4
52 -7 10 -4 16 2 20 18 2 14 2 27 -1 30 -10 10 -51 5 -59 -7z"/>
<path d="M4275 7901 c-3 -5 -1 -12 5 -16 5 -3 10 1 10 9 0 18 -6 21 -15 7z"/>
<path d="M6942 7878 c-4 -3 -87 -9 -185 -12 -97 -3 -181 -7 -185 -10 -5 -3
-76 -7 -158 -9 -144 -5 -189 -2 -502 24 -78 6 -145 9 -148 7 -2 -3 11 -39 31
-81 23 -51 35 -93 36 -126 2 -58 0 -57 136 -65 52 -3 77 0 93 11 18 13 24 13
42 1 17 -11 22 -26 23 -58 1 -24 7 -46 13 -48 34 -11 39 -31 41 -165 1 -75 -1
-152 -5 -171 -5 -31 -9 -35 -29 -30 -18 4 -25 1 -30 -17 -11 -32 -7 -378 4
-414 l9 -30 7 41 c7 39 22 50 41 31 4 -4 15 -7 24 -7 15 0 18 17 23 122 4 66
7 222 7 345 0 180 3 231 16 261 14 33 16 35 26 18 6 -10 19 -27 30 -38 16 -16
19 -28 13 -69 -7 -48 4 -79 26 -79 5 0 9 56 9 123 0 176 10 277 26 277 8 0 14
5 14 11 0 6 12 9 28 7 l27 -3 -4 -637 c-3 -622 -3 -638 16 -638 18 0 19 10 21
153 1 83 6 321 12 527 5 206 11 407 11 447 1 46 -3 78 -11 88 -11 14 -7 19 13
16 4 -1 15 5 23 14 14 14 36 20 58 16 4 -1 19 5 31 13 20 13 38 13 142 2 65
-8 123 -15 128 -17 6 -2 21 4 35 13 28 19 83 25 118 14 21 -7 22 -6 22 68 0
54 -4 76 -12 77 -50 4 -100 3 -106 -3z m-752 -298 c0 -5 -4 -10 -10 -10 -5 0
-10 5 -10 10 0 6 5 10 10 10 6 0 10 -4 10 -10z"/>
<path d="M4040 7860 c0 -5 5 -10 10 -10 6 0 10 5 10 10 0 6 -4 10 -10 10 -5 0
-10 -4 -10 -10z"/>
<path d="M3838 7853 c-16 -2 -28 -9 -28 -15 0 -6 12 -8 31 -4 17 3 38 6 46 6
8 0 11 5 8 10 -3 6 -12 9 -18 9 -7 -1 -24 -4 -39 -6z"/>
<path d="M4000 7850 c0 -5 4 -10 9 -10 6 0 13 5 16 10 3 6 -1 10 -9 10 -9 0
-16 -4 -16 -10z"/>
<path d="M3375 7815 c-38 -14 -51 -14 -127 1 -26 4 -38 3 -38 -5 0 -6 -11 -11
-24 -11 -40 0 -76 -18 -70 -34 4 -12 22 -14 85 -12 43 2 85 8 91 13 17 13 78
22 78 11 0 -14 57 -9 70 7 7 8 21 15 31 15 10 0 21 5 24 10 4 6 -6 10 -24 10
-16 0 -35 2 -43 5 -7 2 -31 -2 -53 -10z"/>
<path d="M3510 7810 c0 -5 4 -10 9 -10 6 0 13 5 16 10 3 6 -1 10 -9 10 -9 0
-16 -4 -16 -10z"/>
<path d="M3029 7785 c-3 -2 -27 -6 -55 -8 -38 -2 -50 -7 -52 -21 -6 -29 10
-35 62 -25 49 9 66 21 66 47 0 12 -12 16 -21 7z"/>
<path d="M4484 7721 c4 -5 -3 -13 -14 -16 -12 -4 -26 -19 -31 -33 -13 -33 -2
-111 15 -118 16 -6 9 -64 -7 -61 -14 2 -25 -76 -26 -188 -1 -55 -6 -88 -16
-103 -20 -27 -25 -94 -26 -361 0 -208 0 -214 22 -237 26 -28 42 -30 59 -9 9
11 16 12 31 2 32 -20 40 3 45 134 2 68 8 183 14 254 5 72 12 194 16 272 8 158
10 162 73 142 67 -21 66 -20 63 -98 -2 -59 0 -72 14 -78 18 -7 48 23 38 39 -7
12 25 48 42 48 18 0 26 33 18 75 -4 25 -15 40 -35 50 -33 18 -54 50 -39 60 16
10 300 -6 300 -17 0 -5 9 -4 19 2 11 5 28 9 38 8 23 -3 70 6 208 39 188 45
215 54 215 69 0 24 -129 70 -225 79 -27 2 -133 11 -235 20 -102 8 -216 20
-255 25 -96 13 -328 14 -321 1z m23 -761 c-3 -42 -37 -42 -37 -1 0 27 15 44
32 34 4 -2 6 -17 5 -33z m-30 -72 c-3 -7 -5 -2 -5 12 0 14 2 19 5 13 2 -7 2
-19 0 -25z"/>
<path d="M2297 7704 c-13 -13 -7 -24 14 -24 11 0 19 5 17 12 -5 14 -22 21 -31
12z"/>
<path d="M2020 7690 c-8 -5 -31 -7 -51 -4 -53 9 -108 -12 -115 -43 -4 -13 -2
-29 3 -34 5 -5 53 -3 123 6 62 8 115 15 116 15 9 0 12 35 4 51 -11 20 -54 26
-80 9z"/>
<path d="M6986 7439 c-4 -132 -5 -243 -2 -246 3 -4 7 29 8 73 1 96 1 96 24
352 5 50 3 62 -9 62 -12 0 -15 -42 -21 -241z"/>
<path d="M6882 7661 c-7 -4 -24 -6 -37 -4 -23 5 -23 5 -30 -139 -8 -162 -13
-743 -7 -794 3 -22 10 -34 19 -34 8 0 13 -6 10 -12 -2 -7 -10 -12 -16 -11 -16
4 -14 -13 4 -30 8 -9 24 -40 35 -70 20 -52 44 -86 55 -75 3 3 0 85 -6 184 -7
118 -8 299 -3 529 9 423 9 444 -2 455 -5 5 -15 6 -22 1z"/>
<path d="M7044 7641 c2 -44 16 -50 16 -8 0 21 -4 37 -9 37 -4 0 -8 -13 -7 -29z"/>
<path d="M3699 7566 c-2 -3 -31 -5 -64 -6 -77 -3 -298 -19 -350 -26 -22 -3
-252 -7 -510 -9 -422 -3 -700 -13 -867 -31 -54 -5 -58 -8 -58 -31 0 -14 -9
-37 -19 -52 -15 -21 -20 -47 -22 -119 -2 -50 0 -94 3 -98 4 -3 39 -1 78 6 67
11 74 11 90 -6 15 -17 16 -32 8 -144 -11 -154 -16 -170 -61 -170 -19 0 -55 -3
-80 -6 l-45 -6 -6 -197 c-12 -402 -16 -477 -21 -506 -9 -51 5 -60 87 -58 88 2
114 8 121 27 3 8 9 106 12 218 3 112 10 280 15 373 5 94 12 268 16 387 7 240
9 245 66 232 18 -4 49 -8 68 -8 35 -1 35 -1 33 -46 -1 -25 -6 -72 -12 -104
-17 -97 -34 -705 -20 -722 9 -10 30 -12 93 -8 96 6 190 19 206 29 10 6 85 7
155 2 17 -1 44 1 60 6 17 4 84 9 150 12 66 2 132 8 146 13 35 14 86 17 136 8
31 -6 51 -3 77 9 20 10 66 19 103 22 38 2 83 5 102 7 21 1 41 11 52 25 17 20
17 26 5 56 -15 34 -22 168 -17 310 2 53 -2 95 -13 125 -16 46 -9 70 20 70 9 0
14 11 14 30 0 20 -5 30 -15 30 -11 0 -15 9 -13 30 3 35 17 41 19 8 1 -15 4
-11 9 12 l7 35 8 -43 c9 -51 26 -37 18 14 -8 48 4 84 27 84 24 0 24 1 4 -50
-17 -43 -14 -130 5 -154 5 -6 12 -117 15 -246 12 -434 17 -480 53 -480 14 0
15 19 9 188 -4 103 -9 252 -12 332 -3 80 -8 152 -11 160 -4 12 -14 110 -26
254 -4 50 30 64 166 70 64 3 122 8 128 11 27 17 226 31 319 22 20 -2 26 3 28
23 5 33 20 50 44 50 13 0 18 6 16 18 -3 16 -25 17 -274 19 -149 2 -273 1 -275
-1z m-274 -196 c-3 -5 -13 -6 -21 -3 -12 4 -13 8 -3 14 15 9 32 2 24 -11z
m-157 -219 c1 -1 4 0 5 2 2 1 11 -4 20 -12 13 -10 17 -10 17 -1 0 7 7 10 15 7
8 -4 17 -2 20 3 8 12 45 -26 45 -46 0 -8 -4 -13 -9 -10 -5 3 -11 -4 -14 -16
-5 -18 -8 -19 -21 -8 -9 7 -16 9 -16 4 0 -4 -5 -3 -12 4 -15 15 -45 16 -50 2
-2 -6 -17 -13 -33 -15 -17 -2 -32 -4 -35 -5 -37 -14 -80 14 -80 51 0 29 14 39
23 17 3 -8 6 -6 6 5 1 17 21 25 21 8 0 -6 12 -3 27 4 22 12 45 13 71 6z m-178
-31 c8 12 10 11 10 -7 0 -33 -3 -38 -17 -35 -7 2 -13 -1 -13 -5 0 -5 -8 -9
-17 -10 -51 -5 -71 -5 -98 0 -16 2 -36 0 -42 -5 -9 -7 -15 -6 -19 5 -9 24 5
41 22 26 11 -9 14 -9 14 1 0 10 3 10 15 0 12 -10 15 -9 15 5 0 11 5 15 15 11
8 -3 15 -1 15 4 0 15 50 12 50 -2 0 -7 5 -5 11 6 9 15 13 16 20 5 8 -12 11
-12 19 1z m-292 -26 c15 9 24 -9 17 -36 -4 -16 -14 -23 -30 -24 -14 -1 -25 2
-25 6 0 12 -39 19 -46 9 -3 -5 -9 -7 -14 -4 -5 3 -18 0 -29 -7 -16 -10 -27
-10 -53 0 -28 10 -34 10 -41 -4 -8 -14 -11 -14 -18 -3 -7 11 -9 10 -9 -4 0
-14 -5 -17 -22 -11 -13 4 -26 12 -30 18 -5 7 -11 8 -15 1 -11 -14 -36 -12 -46
3 -11 17 0 32 18 25 9 -3 15 1 15 8 0 8 6 5 15 -7 8 -10 15 -14 15 -8 0 17 43
26 52 11 5 -8 8 -5 8 8 1 18 2 18 13 3 10 -15 13 -15 38 3 27 19 80 22 105 7
6 -4 21 -1 35 6 14 7 27 8 30 3 4 -5 11 -7 17 -3z m82 -23 c0 -6 -4 -13 -10
-16 -5 -3 -10 1 -10 9 0 9 5 16 10 16 6 0 10 -4 10 -9z m-462 -36 c-2 -10 -8
-12 -17 -6 -12 8 -12 11 0 24 15 16 23 8 17 -18z m-506 -688 c10 -10 12 -31 8
-73 -4 -51 -9 -60 -32 -74 -22 -12 -32 -12 -45 -4 -25 16 -21 133 4 152 22 16
48 15 65 -1z"/>
<path d="M4940 7419 c0 -5 5 -9 11 -9 12 0 10 -96 -4 -131 -5 -13 -12 -49 -14
-79 -2 -30 -6 -84 -8 -120 -5 -66 -11 -162 -19 -304 -3 -51 1 -95 10 -127 28
-92 39 -57 49 156 5 122 23 345 31 402 3 23 14 37 39 52 19 11 35 27 35 35 0
26 23 66 37 66 7 0 13 4 13 9 0 5 3 16 6 24 4 10 -5 17 -28 22 -52 11 -158 14
-158 4z"/>
<path d="M5140 7332 c0 -16 25 -40 48 -45 19 -4 22 -1 22 24 0 26 -3 29 -35
29 -19 0 -35 -4 -35 -8z"/>
<path d="M5433 7318 c-9 -11 -30 -187 -31 -258 -1 -44 -12 -214 -16 -250 -19
-151 -19 -174 2 -198 l21 -23 5 43 c7 57 24 308 32 478 3 74 9 149 14 167 9
36 -9 64 -27 41z"/>
<path d="M5205 7137 c-4 -56 -8 -120 -11 -142 -10 -107 -23 -320 -19 -323 3
-3 6 1 9 9 6 19 25 242 31 359 3 52 8 116 11 141 3 26 1 50 -4 53 -6 3 -13
-34 -17 -97z"/>
<path d="M7049 7123 c-1 -21 -3 -65 -5 -98 -8 -148 -5 -348 5 -358 8 -8 11 63
11 241 0 139 -2 252 -5 252 -3 0 -6 -17 -6 -37z"/>
<path d="M4642 6697 c-6 -7 -14 -32 -18 -55 -5 -34 -3 -43 10 -48 23 -9 24 -6
32 59 7 57 -1 72 -24 44z"/>
<path d="M6123 6620 c0 -30 2 -43 4 -27 2 15 2 39 0 55 -2 15 -4 2 -4 -28z"/>
<path d="M6332 6470 c0 -14 2 -19 5 -12 2 6 2 18 0 25 -3 6 -5 1 -5 -13z"/>
<path d="M6196 6455 c-3 -9 0 -15 9 -15 8 0 15 7 15 15 0 8 -4 15 -9 15 -5 0
-11 -7 -15 -15z"/>
<path d="M5370 6390 c-8 -5 -11 -12 -8 -16 10 -9 38 3 38 16 0 12 -10 13 -30
0z"/>
<path d="M4895 6360 c-16 -18 -16 -20 -1 -26 21 -8 47 13 39 32 -7 19 -17 18
-38 -6z"/>
<path d="M6920 6339 c-248 -20 -820 -61 -990 -72 l-185 -12 0 -40 c-1 -59 3
-65 46 -65 38 0 40 -1 40 -32 3 -151 -3 -1249 -7 -1271 -6 -28 -56 -63 -74
-52 -6 4 -10 -7 -10 -24 0 -31 0 -31 58 -31 l57 0 2 707 c2 562 5 708 15 715
12 8 51 9 242 8 26 -1 55 5 64 12 10 9 68 15 171 20 86 4 188 10 226 13 89 7
121 -7 117 -50 -11 -132 -21 -506 -21 -836 -1 -384 0 -397 18 -402 12 -3 22 1
25 9 3 8 -1 14 -9 14 -11 0 -15 12 -15 41 0 24 4 38 10 34 6 -3 14 4 19 17 9
21 10 21 10 3 1 -12 -4 -26 -10 -32 -7 -7 -3 -11 16 -10 19 0 23 2 14 8 -12 8
-11 11 1 19 11 7 15 31 17 89 1 45 4 84 7 89 2 4 0 28 -5 53 -10 41 -5 208 7
287 4 27 8 31 19 22 7 -6 10 -20 7 -32 -3 -13 -1 -19 5 -15 6 4 13 -4 16 -18
2 -14 1 -27 -3 -30 -4 -2 -6 -54 -4 -115 1 -71 -1 -110 -8 -110 -6 0 -5 -7 3
-17 12 -15 12 -16 -3 -10 -10 3 -18 2 -18 -4 0 -15 30 -23 42 -11 6 6 11 147
14 378 4 348 12 443 34 429 5 -3 11 -1 14 4 4 5 1 13 -4 16 -8 5 -6 11 4 18
13 10 12 14 -10 30 l-25 19 7 -29 c4 -15 3 -25 -1 -21 -7 6 -34 119 -35 145 0
20 39 26 65 9 13 -9 33 -16 43 -16 17 0 20 -10 25 -72 7 -85 -5 -213 -17 -185
-10 22 -26 22 -26 -1 0 -10 -7 -27 -14 -38 -17 -24 -10 -64 10 -64 8 0 14 -4
14 -10 0 -5 -4 -10 -10 -10 -18 0 -11 -25 11 -38 15 -10 18 -16 10 -26 -8 -9
-7 -18 4 -32 12 -16 14 -90 14 -452 0 -238 -2 -439 -6 -447 -3 -9 -19 -15 -41
-15 -47 0 -38 -7 14 -11 l42 -3 7 714 c7 778 5 750 62 750 21 0 23 4 23 50 0
41 -3 50 -17 49 -10 -1 -65 -5 -123 -10z m-140 -209 c11 -11 20 -27 20 -35 0
-8 4 -15 9 -15 4 0 9 -30 10 -67 0 -38 4 -92 7 -120 4 -36 3 -53 -5 -53 -6 0
-11 12 -12 28 0 23 -2 24 -8 8 -12 -32 -21 -4 -28 88 -5 78 -8 86 -34 105 -31
23 -37 49 -17 69 17 17 35 15 58 -8z m180 -316 c0 -14 -4 -23 -9 -20 -5 3 -7
15 -4 26 7 28 13 25 13 -6z m-1170 -1050 c0 -2 -9 -4 -20 -4 -11 0 -20 4 -20
9 0 5 9 7 20 4 11 -3 20 -7 20 -9z"/>
<path d="M4382 6318 c2 -18 10 -24 38 -26 l35 -2 -28 25 c-35 31 -49 32 -45 3z"/>
<path d="M4503 6325 c-15 -17 -3 -27 17 -15 10 6 11 12 5 19 -6 6 -14 4 -22
-4z"/>
<path d="M3578 6303 c-23 -6 -24 -58 -2 -67 23 -9 34 2 34 34 0 32 -7 38 -32
33z"/>
<path d="M3382 6263 c-70 -7 -45 -27 38 -31 65 -4 72 -2 66 13 -3 9 -6 19 -6
21 0 4 -23 3 -98 -3z"/>
<path d="M3283 6248 c-55 -18 -39 -27 35 -19 6 0 12 8 12 16 0 17 -2 17 -47 3z"/>
<path d="M3050 6236 c-29 -8 -57 -9 -77 -4 -17 5 -48 6 -70 2 -62 -9 -236 -21
-463 -29 -315 -13 -295 -10 -298 -35 -4 -22 -2 -22 65 -16 37 3 114 9 171 12
56 3 115 7 130 9 15 2 106 6 202 10 96 4 189 9 205 10 17 2 78 7 138 11 59 4
107 10 107 14 0 7 -46 31 -58 29 -4 -1 -27 -6 -52 -13z"/>
<path d="M5232 6194 c-26 -7 -81 -15 -122 -18 -41 -3 -86 -9 -100 -12 -14 -3
-62 -5 -108 -5 -79 0 -300 -31 -323 -45 -6 -4 -77 -10 -158 -14 -84 -5 -170
-15 -203 -25 -46 -13 -80 -15 -163 -10 -57 4 -110 3 -115 0 -6 -4 -66 -6 -133
-5 -67 1 -162 1 -212 1 -428 -5 -639 -11 -1020 -30 -242 -12 -512 -25 -600
-29 l-160 -7 -8 -165 c-4 -91 -6 -203 -5 -250 l3 -85 35 -16 35 -17 13 82 c7
44 10 106 8 136 -3 30 -1 61 3 69 7 10 36 14 109 15 56 1 104 5 108 9 17 17
70 6 97 -19 21 -19 32 -23 40 -15 17 17 77 14 84 -4 3 -9 0 -35 -7 -59 -10
-36 -9 -49 4 -81 14 -33 16 -75 11 -299 -3 -144 -1 -267 4 -275 7 -11 15 -6
40 20 23 26 30 30 31 17 0 -12 7 -17 22 -15 15 1 26 -5 33 -20 5 -13 13 -23
17 -23 5 0 8 -24 8 -52 0 -33 -4 -48 -9 -40 -6 10 -10 8 -14 -10 -11 -40 -8
-87 8 -95 10 -6 11 -13 5 -23 -8 -12 -10 -11 -11 5 -2 35 -17 -25 -18 -73 -1
-36 -5 -44 -27 -52 -19 -8 -31 -7 -41 1 -10 9 -20 9 -40 0 -18 -8 -23 -15 -15
-20 15 -9 441 -6 507 4 79 12 173 59 181 89 5 23 26 39 23 19 -5 -32 3 -35 28
-12 15 13 21 16 14 7 -7 -10 -10 -18 -6 -18 4 0 2 -7 -5 -15 -7 -8 -17 -12
-23 -8 -6 3 -7 1 -3 -6 4 -6 2 -18 -4 -26 -6 -8 -9 -19 -5 -25 3 -5 2 -10 -2
-10 -5 0 -14 -9 -21 -20 -11 -18 -10 -19 17 -14 24 5 33 1 55 -28 14 -19 26
-45 26 -56 0 -12 9 -31 20 -42 26 -26 18 -40 -24 -40 -66 0 -86 -61 -37 -111
42 -42 61 -37 93 21 16 28 23 50 18 50 -6 0 -10 7 -10 15 0 8 4 15 8 15 12 0
42 -55 42 -77 0 -10 5 -24 11 -30 15 -15 13 -160 -4 -213 l-14 -45 -7 36 c-7
31 -11 35 -31 32 -17 -4 -24 1 -29 21 -3 14 -13 26 -22 26 -15 0 -18 -5 -29
-55 l-6 -29 -19 42 c-10 22 -22 62 -26 87 -4 29 -11 45 -18 42 -8 -3 -12 17
-12 68 0 65 -3 76 -29 111 l-29 38 -8 -39 c-4 -22 -15 -64 -24 -93 -24 -80
-42 -173 -40 -215 0 -20 -3 -37 -7 -37 -5 0 -5 -5 -1 -12 4 -6 8 -75 10 -152
4 -241 7 -297 17 -303 5 -3 14 2 19 11 13 23 27 20 21 -5 -9 -32 -28 -33 -77
-4 -44 26 -80 73 -92 121 -7 25 -21 40 -31 30 -3 -3 0 -12 7 -21 8 -10 9 -15
1 -15 -15 0 -26 51 -13 59 8 4 7 15 -2 36 -8 17 -19 45 -26 62 -7 18 -16 30
-21 27 -5 -3 -9 0 -9 5 0 6 5 11 11 11 7 0 8 7 4 18 -4 9 -7 30 -6 45 l1 28
-27 -17 c-16 -10 -38 -27 -50 -38 -13 -10 -24 -18 -26 -15 -9 10 -67 169 -78
209 -6 24 -22 67 -36 93 -23 47 -24 50 -7 68 15 17 226 126 274 142 8 3 -83 6
-203 6 l-218 1 -45 31 c-63 43 -172 92 -189 85 -8 -3 -15 -1 -15 4 0 6 -35 10
-80 10 -66 0 -80 -3 -80 -16 0 -9 -5 -12 -12 -8 -6 4 -47 8 -91 9 l-79 2 6
-28 c4 -21 2 -29 -8 -29 -8 0 -22 -3 -32 -7 -15 -5 -16 -1 -9 43 4 27 12 55
17 62 6 7 7 12 1 12 -13 0 -32 -43 -53 -120 l-18 -65 -1 60 c-2 59 -2 59 -16
33 -8 -15 -19 -72 -24 -128 -4 -56 -13 -106 -20 -113 -16 -16 -14 46 4 158 12
70 12 91 2 97 -8 5 -9 8 0 8 13 0 58 68 50 76 -9 10 -114 -38 -178 -82 -36
-25 -73 -46 -81 -47 -26 -4 -65 -42 -101 -99 -20 -31 -33 -58 -30 -62 3 -3 -4
-14 -15 -25 -12 -10 -22 -24 -22 -30 0 -7 -4 -9 -10 -6 -5 3 -10 1 -10 -4 0
-6 -6 -11 -12 -11 -13 0 -55 -87 -50 -103 1 -4 -4 -10 -12 -13 -8 -3 -13 -11
-11 -17 3 -7 -4 -23 -15 -37 l-20 -25 4 30 c2 17 12 53 21 80 32 98 34 106 24
100 -5 -4 -19 -25 -30 -48 -12 -22 -27 -47 -35 -54 -9 -9 -11 -25 -7 -45 4
-22 3 -29 -5 -24 -13 8 -15 -6 -12 -62 1 -18 -4 -40 -11 -48 -10 -12 -8 -17 7
-29 10 -8 27 -13 37 -11 11 3 16 2 13 -1 -3 -3 10 -23 29 -45 43 -51 54 -107
28 -142 -20 -28 -55 -45 -60 -29 -2 5 -29 8 -61 6 -80 -5 -145 5 -138 22 13
36 -81 75 -289 120 -180 39 -337 91 -482 161 -51 24 -95 44 -98 44 -3 0 -5
-241 -5 -536 l0 -535 23 3 c16 2 21 9 20 25 -2 14 4 24 17 28 25 8 41 -1 33
-20 -6 -17 39 -19 120 -6 27 5 63 5 80 1 l32 -8 -40 -3 c-106 -7 -173 -20
-186 -35 -6 -8 -17 -14 -24 -14 -20 0 -39 -27 -23 -33 7 -3 3 -6 -9 -6 -12 -1
-25 -5 -28 -11 -9 -15 9 -12 67 11 46 19 72 21 193 21 164 -2 274 -8 282 -16
13 -13 -9 -18 -89 -23 -71 -4 -166 -28 -154 -40 2 -2 46 -5 97 -6 75 -2 102
-7 136 -25 39 -22 43 -22 77 -8 20 8 36 19 36 23 0 5 18 16 39 25 22 10 55 31
74 48 19 16 49 33 66 36 28 6 31 10 31 41 0 30 3 34 17 28 67 -28 85 -31 133
-21 28 5 50 13 50 16 0 4 -11 16 -25 28 -25 21 -33 42 -17 42 4 0 12 -4 17 -9
6 -6 29 -13 53 -17 54 -8 56 10 7 49 -28 22 -35 35 -35 62 0 19 -4 36 -9 39
-5 3 -19 25 -31 48 -23 44 -26 86 -18 198 l6 65 -17 -38 c-9 -22 -20 -35 -25
-30 -5 5 -7 1 -3 -9 4 -10 2 -18 -3 -18 -11 0 -19 -40 -22 -117 -1 -34 -5 -61
-8 -61 -21 2 -30 -5 -31 -24 -1 -17 -2 -19 -6 -5 -2 9 -9 17 -14 17 -5 0 -9 6
-9 13 0 22 -30 15 -31 -7 -2 -27 -2 -25 7 -70 5 -28 4 -37 -5 -32 -6 4 -12 1
-12 -6 -3 -33 -17 54 -18 115 -1 57 -4 67 -18 67 -11 0 -14 -3 -7 -8 13 -8 14
-42 2 -42 -5 0 -6 -5 -2 -12 4 -7 3 -8 -4 -4 -6 3 -16 -3 -22 -14 -13 -25 -30
-26 -30 -2 -1 16 -1 16 -11 -1 -11 -19 -4 -89 13 -120 10 -19 2 -19 -49 0 -7
3 -13 -1 -13 -8 0 -7 -3 -10 -6 -6 -3 3 -16 2 -28 -2 -12 -5 -31 -2 -46 6 -16
8 -19 13 -10 14 22 2 23 2 48 -6 17 -5 22 -2 22 10 0 11 -5 15 -14 12 -8 -3
-30 3 -50 14 -45 24 -116 36 -116 20 0 -6 6 -14 14 -17 8 -3 12 -12 10 -19 -3
-7 7 -18 25 -26 45 -20 48 -39 6 -39 -19 0 -35 -4 -35 -10 0 -5 3 -9 8 -9 25
4 32 -2 22 -20 -10 -20 -18 -20 -130 -7 -19 3 -86 8 -148 12 -62 4 -115 10
-117 15 -11 17 27 89 50 95 27 7 106 -31 102 -49 -1 -8 9 -11 28 -10 112 9
129 33 122 173 -2 52 -11 137 -18 188 l-13 93 32 25 c36 29 39 44 15 84 -14
24 -15 34 -5 54 14 32 29 32 152 5 52 -12 153 -24 224 -28 72 -3 131 -10 132
-16 2 -5 -15 -19 -38 -31 -47 -24 -66 -52 -27 -40 13 5 56 13 95 19 60 10 78
18 112 48 43 40 86 54 131 44 36 -8 50 -23 96 -107 30 -56 35 -73 29 -103 -6
-33 -37 -75 -55 -75 -4 0 -3 17 2 38 5 20 9 40 9 43 0 4 -18 0 -41 -7 -22 -8
-50 -16 -61 -17 -11 -2 -27 -12 -34 -22 -18 -25 -17 -123 1 -155 10 -17 14
-20 15 -9 0 15 27 29 57 29 7 0 18 -12 25 -27 32 -65 80 -54 52 12 -12 30 -13
44 -5 62 6 13 11 33 11 43 0 11 13 29 29 41 16 12 32 33 36 46 5 21 8 23 21
12 8 -7 12 -20 9 -30 -4 -13 -1 -19 9 -19 9 0 16 8 16 19 0 19 23 30 51 24 12
-3 19 -20 23 -56 5 -37 10 -47 16 -37 7 10 10 -3 10 -42 0 -31 -5 -60 -10 -63
-15 -9 -8 -36 13 -58 15 -15 21 -16 33 -6 13 10 17 10 24 0 5 -9 10 -10 14 -3
4 6 16 9 27 7 15 -3 19 0 15 10 -3 8 -1 17 4 20 5 3 5 18 0 34 -4 16 -6 32 -3
35 3 3 -2 8 -11 12 -23 9 -20 24 5 24 11 0 34 -15 50 -32 l30 -33 19 25 c18
24 18 25 -5 48 -49 49 3 69 81 31 40 -19 50 -35 56 -86 2 -17 49 -102 58 -105
15 -5 41 -149 35 -191 -4 -20 -14 -45 -23 -54 -20 -20 -25 -98 -5 -81 21 17
15 -7 -7 -27 -11 -10 -20 -23 -20 -28 0 -5 -13 -31 -28 -56 -26 -42 -38 -86
-47 -179 -2 -19 -11 -42 -19 -51 -20 -22 -20 -31 -1 -31 8 0 15 -4 15 -10 0
-11 -30 -13 -54 -4 -9 3 -13 11 -9 18 15 23 10 37 -18 51 -18 10 -26 20 -23
30 4 8 1 15 -5 15 -6 0 -11 7 -11 16 0 11 -5 14 -16 10 -9 -3 -20 -6 -25 -6
-11 0 -3 -40 16 -85 34 -80 43 -115 44 -180 2 -38 3 -92 4 -120 2 -48 1 -50
-23 -47 -65 6 -92 43 -111 152 -12 68 -17 80 -62 127 -39 41 -49 60 -50 89 -2
46 -27 66 -54 42 -10 -8 -31 -18 -48 -21 -77 -15 -155 -41 -155 -52 0 -7 7
-26 15 -41 12 -24 13 -31 2 -39 -8 -5 -12 -16 -10 -22 3 -7 0 -13 -6 -13 -6 0
-18 -14 -27 -32 -22 -42 -49 -64 -103 -83 -59 -20 -89 -19 -134 5 -67 36 -93
26 -159 -65 -20 -27 -48 -61 -62 -74 -14 -14 -26 -29 -26 -34 0 -11 -39 -47
-51 -47 -5 0 -14 9 -21 20 -8 12 -24 20 -38 20 -56 0 -157 -94 -148 -137 3
-14 12 -18 40 -16 37 2 37 2 31 -30 -3 -18 -10 -40 -15 -50 -5 -10 -9 -55 -9
-100 0 -51 -8 -110 -20 -155 -18 -66 -19 -85 -11 -190 12 -135 10 -185 -7
-206 -21 -25 -51 -14 -71 24 -10 20 -39 55 -63 77 -25 23 -48 51 -51 61 -4 11
-18 32 -31 46 l-24 26 -36 -21 c-35 -21 -37 -21 -98 -4 -35 9 -74 15 -88 13
-23 -3 -24 -6 -27 -91 -2 -68 1 -97 16 -130 25 -58 46 -160 38 -192 l-7 -25
-24 25 -24 26 0 -585 0 -586 802 0 c796 0 803 0 804 20 1 11 -4 20 -13 20 -21
0 -17 31 10 71 l25 36 173 8 c95 4 279 10 408 13 l235 7 -2 40 c-1 22 -4 112
-8 200 -4 88 -11 162 -16 163 -5 2 -15 9 -22 16 -18 19 -59 13 -68 -10 -11
-29 -49 -56 -70 -51 -12 3 -20 -2 -24 -14 -4 -10 -12 -19 -20 -19 -7 0 -16 -7
-19 -16 -5 -14 -1 -15 28 -10 20 4 37 2 41 -4 7 -12 -19 -42 -29 -33 -4 4 -16
8 -28 10 -12 2 -25 8 -29 14 -10 17 1 49 17 49 21 0 16 14 -9 26 -14 6 -35 7
-52 2 -17 -5 -38 -6 -48 -4 -9 2 -15 0 -12 -4 3 -5 -2 -15 -10 -23 -19 -19
-19 -31 -1 -46 18 -15 41 10 25 26 -6 6 -8 16 -5 22 10 16 46 13 46 -3 0 -8 6
-21 13 -28 19 -19 28 -46 17 -53 -6 -4 -10 -10 -10 -15 0 -14 32 -21 45 -10 8
7 16 7 19 2 6 -9 -4 -20 -33 -37 -9 -5 -12 -4 -7 3 10 16 -7 15 -23 -1 -11 -9
-13 -9 -7 1 11 18 -14 15 -37 -6 -19 -16 -20 -16 -14 6 12 49 -59 85 -85 43
-9 -15 -17 -17 -34 -11 -28 11 -39 1 -16 -16 15 -11 12 -13 -23 -20 -22 -4
-43 -12 -47 -17 -10 -15 -41 -18 -50 -4 -5 8 -8 7 -8 -4 0 -20 -44 -31 -59
-16 -8 8 -11 7 -11 -3 0 -13 -2 -13 -10 0 -6 10 -10 11 -10 3 0 -7 -4 -13 -10
-13 -16 0 -11 28 13 73 33 61 45 103 61 203 7 49 26 130 40 179 17 56 27 114
27 155 1 44 7 75 19 96 10 17 25 57 34 88 9 31 23 81 32 111 12 41 20 55 34
55 10 0 22 -5 25 -10 4 -6 41 -34 83 -62 42 -29 131 -92 197 -141 165 -123
157 -121 209 -64 23 26 59 53 79 62 l37 15 0 68 c0 70 -35 229 -66 298 -9 22
-16 42 -15 47 0 4 -11 12 -26 18 -20 7 -28 7 -35 -3 -6 -11 -8 -10 -8 0 0 9
-7 11 -20 7 -23 -7 -26 4 -7 24 10 11 7 13 -16 8 -40 -7 -73 27 -75 76 -1 27
4 41 18 50 11 6 20 17 20 24 0 7 7 10 15 6 10 -3 15 0 13 8 -2 8 3 13 12 11 8
-2 12 0 8 4 -4 4 2 24 13 44 16 28 20 47 15 72 -3 18 -7 42 -9 53 -2 11 -10
31 -17 45 l-14 25 -6 -24 c-5 -23 -6 -23 -31 15 -15 22 -34 64 -43 94 -22 74
-31 88 -109 172 -118 127 -177 202 -163 210 40 23 498 8 548 -18 41 -21 51
-17 30 14 -10 15 -32 55 -47 90 -22 48 -31 60 -41 51 -10 -8 -9 -17 6 -45 20
-34 12 -44 -19 -25 -17 11 -20 65 -6 96 11 26 35 137 42 198 4 40 10 50 34 62
17 9 31 26 35 43 17 79 29 112 41 108 17 -7 17 -7 -11 49 -19 37 -23 53 -15
67 14 26 31 18 41 -18 4 -16 19 -40 33 -54 14 -14 34 -34 45 -44 11 -11 20
-27 20 -35 0 -8 17 -33 37 -55 l38 -40 -43 35 c-73 57 -82 63 -82 50 0 -14 33
-82 68 -137 25 -40 26 -41 78 -39 73 2 91 20 91 90 0 33 6 64 17 79 20 31 21
70 2 85 -11 10 -21 9 -46 -4 -17 -9 -41 -15 -53 -13 -12 1 -37 -4 -54 -11 -79
-32 -86 43 -9 86 10 6 18 23 18 41 1 18 4 32 8 32 17 0 18 44 2 56 -15 12 -14
16 21 51 20 21 37 44 37 49 0 6 9 19 20 29 24 22 26 35 3 35 -9 0 -14 2 -11 5
3 3 19 2 36 -1 24 -5 36 -16 51 -48 l20 -41 -25 30 -25 30 16 -40 c9 -22 24
-47 34 -55 19 -17 17 -35 -7 -62 -14 -16 -13 -18 1 -18 13 0 17 -9 17 -34 0
-19 -4 -37 -8 -40 -12 -7 -8 -44 10 -106 20 -66 17 -158 -8 -260 -20 -84 -14
-98 39 -81 42 14 212 176 201 192 -4 8 -3 9 5 5 6 -4 11 -13 9 -19 -1 -7 2
-23 6 -36 7 -20 -1 -32 -55 -88 -35 -35 -77 -72 -94 -81 -24 -13 -27 -17 -12
-20 10 -2 25 2 34 10 9 7 14 8 10 2 -3 -6 9 -26 29 -43 40 -37 37 -48 -22 -76
-28 -13 -32 -19 -25 -34 15 -28 31 -37 110 -64 61 -21 79 -23 105 -14 17 5 34
15 38 20 3 6 11 -9 18 -34 6 -24 14 -53 17 -63 5 -17 1 -18 -28 -13 -19 3 -44
9 -56 13 -26 7 -31 -9 -10 -30 30 -29 228 -45 327 -26 55 10 89 -3 66 -25 -8
-8 -16 -19 -18 -24 -1 -6 -46 -16 -98 -23 -94 -14 -95 -14 -99 -43 -6 -50 19
-225 44 -310 14 -44 40 -143 60 -220 39 -153 49 -185 99 -320 56 -151 105
-305 125 -395 24 -106 74 -291 106 -390 13 -41 31 -102 40 -135 10 -33 29 -94
42 -135 14 -41 33 -111 42 -155 l17 -80 35 -3 c33 -3 35 -1 33 27 -1 16 -6 35
-10 43 -5 7 -7 24 -5 37 2 18 -1 22 -13 18 -9 -4 -16 -2 -16 3 0 6 6 10 13 10
9 0 9 2 -1 8 -11 7 -26 74 -36 158 -2 12 -10 31 -19 44 -8 12 -13 28 -11 35 3
7 -2 27 -11 44 -8 17 -13 31 -9 31 4 0 2 6 -4 13 -6 7 -13 28 -16 47 -6 42
-17 83 -25 90 -7 6 -31 67 -38 98 -3 12 -9 22 -14 22 -5 0 -9 7 -9 15 0 8 5
15 10 15 6 0 10 5 10 11 0 5 -3 8 -7 6 -5 -3 -9 12 -10 34 -2 38 -2 38 18 21
12 -9 30 -26 41 -37 25 -26 57 -29 51 -5 -11 42 133 -119 212 -237 48 -70 115
-168 150 -218 84 -119 166 -240 199 -292 l26 -43 818 0 818 0 69 36 c39 20 90
54 116 74 25 21 82 57 128 81 46 24 121 77 168 117 47 40 105 86 128 102 24
17 52 40 62 53 10 13 31 27 46 31 l27 6 0 110 0 110 -34 0 c-30 0 -35 3 -38
28 -3 24 -6 21 -27 -29 -15 -36 -34 -62 -52 -73 -30 -18 -30 -41 1 -49 10 -3
27 -22 36 -43 10 -22 20 -43 22 -47 4 -8 -3 -5 -64 26 -18 9 -48 18 -68 19
-20 2 -36 6 -36 9 0 7 -37 21 -61 23 -8 1 -23 9 -33 19 -10 9 -25 17 -35 17
-10 0 -30 14 -44 30 -15 17 -32 30 -37 30 -6 0 -10 7 -10 15 0 8 -4 15 -9 15
-10 0 -16 -28 -46 -195 -27 -146 -56 -265 -66 -265 -5 0 -9 27 -9 61 0 55 -1
59 -16 45 -8 -9 -27 -17 -42 -17 -15 -1 -40 -2 -56 -3 -16 -1 -36 -12 -46 -24
-14 -17 -29 -22 -63 -22 -68 0 -108 10 -105 27 3 17 109 63 143 63 12 0 30 9
40 20 10 11 23 20 29 20 6 0 25 7 41 16 17 9 43 16 58 16 33 -1 41 15 51 98 4
30 9 62 12 71 7 24 -64 109 -91 109 -12 0 -48 20 -80 45 -46 35 -63 43 -85 38
-40 -8 -96 14 -134 52 -26 25 -39 32 -60 28 -20 -4 -26 -1 -26 12 0 13 -6 16
-24 11 -14 -3 -28 -2 -31 4 -8 14 -52 13 -61 -1 -18 -30 -130 26 -182 92 -13
16 -32 29 -42 29 -10 0 -22 6 -27 13 -8 13 -95 296 -138 452 -15 55 -40 136
-55 180 -16 44 -36 118 -45 165 -9 47 -20 89 -25 95 -5 6 -16 41 -25 78 -10
36 -22 64 -27 61 -5 -3 -16 0 -24 7 -8 6 -33 12 -57 11 -28 0 -49 7 -64 20
-20 18 -23 19 -46 4 -19 -13 -26 -14 -34 -4 -42 53 -55 141 -35 231 8 31 8 56
2 73 -7 19 -6 33 7 57 26 51 21 327 -8 416 -12 36 -27 73 -34 81 -25 31 -28
45 -4 24 13 -11 36 -28 51 -37 15 -10 31 -30 34 -45 4 -15 19 -52 34 -82 15
-30 30 -68 34 -85 4 -16 14 -43 22 -60 7 -16 23 -57 34 -90 28 -83 91 -175
188 -278 45 -48 80 -92 77 -97 -7 -12 54 -132 106 -210 60 -90 132 -168 169
-183 11 -4 10 -6 -4 -6 -11 -1 -28 6 -38 16 -23 21 -23 13 3 -101 12 -50 27
-95 33 -101 7 -5 11 -15 9 -20 -2 -6 10 -24 27 -40 24 -23 30 -25 30 -11 0 9
-4 14 -10 11 -6 -3 -10 -1 -10 4 0 6 3 11 8 11 17 -1 30 -18 51 -72 12 -31 30
-63 40 -72 16 -14 19 -14 40 0 21 15 22 15 20 -2 -1 -11 1 -32 6 -47 11 -41
-1 -44 -21 -5 -11 20 -19 28 -22 19 -2 -7 0 -16 6 -20 6 -3 18 -25 27 -49 10
-23 21 -42 27 -42 5 0 7 4 4 9 -6 10 43 35 63 32 7 -1 10 2 6 8 -3 6 3 21 15
33 18 19 22 21 31 8 8 -11 12 -12 16 -2 2 6 9 12 15 12 6 0 4 -8 -5 -18 -10
-10 -14 -22 -10 -27 5 -4 2 -5 -4 -1 -7 4 -14 2 -14 -3 -1 -6 -3 -15 -4 -21
-1 -5 -3 -14 -4 -18 0 -5 -10 -19 -21 -32 -11 -13 -20 -31 -20 -41 0 -9 -5
-19 -10 -21 -6 -2 -8 -17 -4 -36 4 -22 11 -31 20 -28 7 3 16 -4 19 -15 5 -14
13 -19 26 -16 10 3 19 1 19 -4 0 -4 7 -6 15 -3 9 4 15 0 15 -10 0 -9 -4 -16
-10 -16 -5 0 -9 -3 -8 -7 0 -5 -2 -16 -7 -26 -4 -10 -5 -20 -3 -22 6 -7 33 21
79 85 23 30 57 64 77 77 45 28 71 31 46 5 -10 -9 -19 -15 -20 -12 -2 3 -9 -4
-17 -14 -9 -12 -20 -17 -30 -13 -9 3 -16 3 -15 -1 3 -14 -16 -47 -44 -80 -15
-18 -28 -37 -28 -42 0 -5 -6 -7 -14 -4 -16 6 -30 -22 -16 -31 6 -4 10 -1 10 4
0 6 5 11 11 11 6 0 8 -7 5 -16 -3 -8 -2 -12 4 -9 6 3 10 -1 10 -9 0 -9 6 -16
14 -16 8 0 22 -3 30 -6 12 -5 15 -2 10 10 -4 11 2 19 19 25 21 8 53 61 49 83
-1 4 6 4 15 1 13 -5 15 -2 10 11 -6 16 -3 17 19 12 16 -4 23 -3 20 3 -4 5 -1
13 5 17 9 5 10 0 5 -17 -12 -40 -12 -52 3 -57 8 -2 11 0 7 6 -3 5 1 13 10 16
8 3 12 2 9 -4 -3 -6 -2 -10 4 -10 6 0 17 12 24 26 13 24 15 25 21 8 4 -10 4
-15 0 -11 -10 10 -33 -24 -27 -40 3 -7 9 -10 14 -7 5 3 9 3 9 0 0 -3 -19 -14
-42 -25 -64 -30 -104 -69 -91 -90 12 -20 53 -24 53 -5 0 8 4 14 9 14 5 0 17 3
27 7 10 3 15 2 12 -3 -3 -5 0 -15 8 -22 12 -11 14 -10 15 5 0 11 3 13 6 5 2
-6 9 -10 14 -6 5 3 9 0 9 -5 0 -6 -4 -11 -10 -11 -5 0 -10 -6 -10 -14 0 -8 -9
-18 -21 -21 -23 -8 -21 -23 7 -41 31 -21 72 18 78 76 3 25 10 70 15 100 6 30
13 71 15 90 5 41 29 171 57 318 18 97 18 104 2 135 -16 31 -48 114 -98 258
-23 66 -88 203 -106 225 -5 7 -7 23 -5 36 6 23 28 240 27 268 0 8 -4 51 -9 95
l-9 80 -2 -100 c-4 -173 -11 -338 -15 -342 -6 -7 -44 85 -71 172 -15 50 -51
136 -81 193 -46 88 -54 111 -54 158 0 30 -6 69 -14 88 -18 43 -76 124 -151
211 -75 87 -148 190 -162 230 -7 17 -14 62 -16 100 -3 54 -13 88 -42 148 -33
70 -85 148 -122 185 -7 8 -21 28 -30 45 -8 18 -29 48 -44 68 -22 28 -29 48
-29 80 -1 52 -3 57 -98 179 -173 226 -294 360 -389 433 -29 22 -53 43 -53 48
0 13 -91 79 -119 85 -14 4 -53 24 -87 45 -65 42 -122 51 -159 25 -34 -23 -65
-29 -65 -13 0 9 -20 25 -45 37 -40 19 -44 24 -34 42 14 25 10 28 -40 35 -30 4
-49 15 -69 37 -27 31 -28 33 -21 121 7 86 4 223 -6 275 -15 80 -16 134 -6 305
7 135 7 212 -1 265 -6 41 -11 98 -12 125 -1 28 -6 78 -10 112 -15 110 4 134
82 101 32 -13 49 -15 68 -7 43 16 54 -2 54 -92 0 -68 -5 -108 -26 -206 -3 -14
-12 -23 -23 -23 -10 0 -24 -7 -31 -14 -15 -20 -28 -277 -26 -520 2 -165 4
-189 19 -198 9 -5 17 -16 17 -24 0 -9 12 -1 30 19 l30 35 11 278 c5 154 13
364 17 468 9 235 0 224 179 228 l121 3 12 -39 c10 -32 9 -41 -3 -53 -13 -13
-23 -10 -80 21 -76 42 -92 44 -101 14 -7 -29 -6 -123 3 -163 5 -24 8 -26 13
-12 7 16 10 16 48 -4 43 -23 46 -29 54 -129 5 -64 -18 -225 -35 -244 -5 -5
-28 -11 -51 -13 -24 -3 -44 -6 -47 -8 -4 -5 -3 -68 5 -178 l7 -88 60 3 c33 2
61 8 64 14 7 18 34 10 55 -15 12 -16 18 -39 18 -72 0 -53 11 -62 35 -26 12 19
13 33 4 77 -20 103 -21 142 -9 254 6 61 15 183 19 271 4 88 13 170 19 182 13
24 61 52 80 45 14 -4 16 -39 3 -44 -5 -1 -11 -21 -13 -43 -3 -35 0 -40 19 -43
26 -4 39 30 30 76 -3 16 1 35 9 46 8 11 14 30 14 42 0 12 7 38 15 58 9 20 13
47 10 59 -4 15 0 28 11 37 14 13 19 11 40 -14 22 -25 24 -34 19 -104 -25 -363
-33 -577 -22 -588 13 -13 17 24 31 276 10 190 18 262 29 284 11 20 13 35 6 47
-6 12 -5 20 2 24 17 11 24 -3 20 -41 -2 -27 4 -42 29 -71 22 -24 30 -42 26
-57 -9 -36 -39 -656 -32 -663 24 -25 45 102 51 317 13 450 12 516 -9 539 -11
12 -27 21 -38 21 -11 0 -18 7 -18 20 0 15 7 20 29 20 36 0 39 10 33 126 l-4
91 -44 -1 c-24 0 -65 -5 -92 -12z m-1320 -179 c10 -1 33 0 51 5 19 4 41 3 50
-2 14 -7 14 -13 3 -41 -7 -17 -16 -68 -20 -113 l-6 -81 62 -6 c65 -6 174 3
195 16 7 4 10 13 8 20 -2 7 -6 42 -9 79 -6 60 -4 68 14 78 14 7 26 8 39 0 19
-9 19 -21 14 -292 -3 -156 -6 -284 -8 -286 -6 -7 -31 10 -40 27 -36 71 -75
112 -150 158 -129 80 -197 111 -255 119 -95 12 -103 20 -105 105 -2 113 11
201 31 216 15 11 65 10 126 -2z m1078 -120 c0 -14 -4 -25 -9 -25 -6 0 -8 36
-2 48 5 10 11 -2 11 -23z m-1266 -82 c1 -35 1 -63 -1 -63 -3 0 -14 5 -25 11
-52 28 -76 28 -114 3 -42 -29 -89 -25 -99 7 -4 11 -9 18 -13 15 -3 -3 -15 0
-26 7 -12 8 -34 13 -50 13 -15 -1 -30 4 -33 11 -3 7 -9 13 -15 13 -5 0 -6 -5
-2 -11 4 -7 -1 -10 -12 -7 -10 2 -20 11 -22 21 -3 13 4 17 30 18 77 1 198 9
263 18 118 15 116 16 119 -56z m-715 38 c8 -14 7 -22 -4 -31 -23 -19 -50 -8
-53 23 -3 23 0 27 22 27 15 0 30 -8 35 -19z m59 -58 c15 -32 16 -79 2 -88 -6
-3 -13 2 -16 12 -10 29 -13 37 -26 57 -11 15 -11 19 0 23 6 3 10 9 6 14 -3 5
1 9 8 9 7 0 19 -12 26 -27z m-257 -83 c6 0 7 -6 3 -12 -13 -21 -16 -88 -4 -88
7 0 10 -14 9 -34 -2 -19 -1 -38 3 -41 3 -3 1 -24 -4 -45 -6 -22 -7 -48 -3 -57
5 -10 7 -24 6 -30 -1 -7 3 -13 8 -13 6 0 7 -8 2 -22 -4 -13 -2 -37 6 -61 8
-22 16 -83 18 -136 8 -171 13 -201 39 -252 36 -67 37 -168 4 -199 -19 -18 -31
-21 -68 -17 -36 4 -49 1 -67 -15 -28 -26 -70 -18 -83 17 -11 29 -10 29 -46 10
-16 -8 -32 -11 -36 -7 -16 17 -36 95 -28 111 5 9 11 23 13 32 8 24 56 12 69
-17 l11 -24 18 30 c19 31 46 39 67 18 8 -8 12 -8 12 -1 0 5 11 27 25 47 23 34
25 44 21 129 -3 51 -7 112 -10 137 -3 25 -8 119 -11 210 -3 91 -7 205 -10 253
-3 77 -2 88 11 83 9 -3 20 -6 25 -6z m416 -44 c2 7 13 10 24 7 11 -3 18 -8 16
-12 -2 -3 -9 -21 -16 -38 -11 -29 -14 -31 -28 -18 -8 9 -12 22 -9 30 3 8 1 15
-4 15 -5 0 -9 -19 -9 -42 1 -68 -4 -118 -11 -113 -4 2 -5 -8 -3 -23 4 -24 3
-25 -7 -9 -7 10 -10 27 -7 38 3 10 1 19 -3 19 -5 0 -11 -13 -15 -30 -4 -16
-10 -28 -13 -27 -13 4 -52 -42 -41 -49 12 -7 -8 -34 -26 -34 -13 0 -16 14 -31
153 -9 82 6 107 62 107 26 0 50 7 65 19 19 15 27 17 38 8 11 -9 15 -9 18 -1z
m116 -17 c-6 -21 -11 -23 -32 -10 -17 11 -8 26 17 28 15 1 19 -3 15 -18z
m1587 -19 c0 -16 -17 -20 -28 -7 -8 10 -6 13 9 14 10 1 19 -2 19 -7z m-1946
-85 c3 -38 8 -79 10 -91 5 -22 9 -81 7 -101 -2 -28 -21 -11 -21 20 0 17 -6 58
-14 89 -7 32 -11 59 -9 62 3 2 -3 18 -11 35 -21 39 -20 59 2 64 26 6 29 -2 36
-78z m-557 28 c-3 -10 -5 -2 -5 17 0 19 2 27 5 18 2 -10 2 -26 0 -35z m30 5
c-3 -8 -6 -5 -6 6 -1 11 2 17 5 13 3 -3 4 -12 1 -19z m933 8 c0 -2 -8 -10 -17
-17 -16 -13 -17 -12 -4 4 13 16 21 21 21 13z m-70 -76 c0 -5 -5 -10 -11 -10
-5 0 -7 5 -4 10 3 6 8 10 11 10 2 0 4 -4 4 -10z m-880 -12 c0 27 20 10 31 -28
8 -28 15 -37 21 -28 5 8 8 -3 8 -29 0 -23 -4 -45 -10 -48 -11 -7 -14 -74 -4
-99 3 -9 12 -16 20 -16 10 0 14 -12 13 -42 -1 -24 -3 -35 -6 -25 -7 25 -23 21
-23 -6 0 -26 -34 -67 -55 -67 -8 0 -16 -8 -16 -17 -1 -10 -4 -4 -8 12 -8 33
-4 294 5 364 4 32 8 40 15 30 6 -10 9 -10 9 -1z m880 -57 c0 -5 -7 -12 -16
-15 -14 -5 -15 -4 -4 9 14 17 20 19 20 6z m-306 -156 c3 -9 0 -15 -9 -15 -8 0
-15 7 -15 15 0 8 4 15 9 15 5 0 11 -7 15 -15z m1824 -58 c-11 -21 -28 -14 -28
12 0 25 10 32 25 18 9 -8 10 -18 3 -30z m62 -48 c0 -10 -4 -19 -9 -19 -14 0
-33 28 -27 39 10 16 36 1 36 -20z m-1885 -50 c11 -24 32 -23 27 1 -3 12 -1 12
9 3 9 -9 9 -17 -4 -37 -9 -14 -15 -38 -13 -53 2 -15 1 -19 -1 -8 -4 17 -7 16
-18 -10 -7 -17 -14 -24 -14 -17 -1 7 4 23 10 34 10 18 9 20 -5 15 -18 -7 -20
1 -6 37 6 17 6 26 0 26 -6 0 -10 7 -10 15 0 22 14 18 25 -6z m165 6 c0 -8 -7
-15 -15 -15 -13 0 -14 3 -3 15 16 18 18 18 18 0z m-460 -61 c0 -24 -4 -34 -12
-32 -15 5 -22 42 -14 64 10 25 26 5 26 -32z m347 -6 c-3 -8 -6 -5 -6 6 -1 11
2 17 5 13 3 -3 4 -12 1 -19z m100 -50 c-3 -7 -5 -2 -5 12 0 14 2 19 5 13 2 -7
2 -19 0 -25z m-13 -94 c-10 -8 -13 -21 -9 -40 l5 -29 -11 28 c-8 21 -8 31 3
44 10 13 10 17 1 20 -7 3 -13 14 -13 26 0 20 2 19 20 -8 18 -27 18 -31 4 -41z
m-134 35 c0 -15 5 -19 15 -15 8 3 15 1 15 -4 0 -6 -4 -10 -9 -10 -11 0 -19
-90 -9 -96 12 -8 9 -64 -3 -64 -5 0 -9 8 -7 18 1 9 -1 22 -4 28 -4 5 -8 35 -9
65 -1 30 -6 64 -10 77 -6 16 -5 22 6 22 9 0 15 -9 15 -21z m197 -31 c-3 -8 -6
-5 -6 6 -1 11 2 17 5 13 3 -3 4 -12 1 -19z m343 -168 c0 -5 -5 -10 -11 -10 -5
0 -7 5 -4 10 3 6 8 10 11 10 2 0 4 -4 4 -10z m29 -31 c-10 -6 -11 -9 -1 -9 6
0 12 -7 12 -15 0 -9 8 -19 17 -22 26 -10 50 -38 45 -54 -3 -11 -2 -11 6 -1 14
21 92 -34 92 -65 0 -13 3 -22 8 -20 4 3 7 -36 8 -86 0 -62 5 -101 16 -119 8
-15 17 -25 20 -22 3 3 5 -9 4 -25 -2 -48 -15 -55 -82 -40 -79 17 -89 17 -88
-4 2 -14 -5 -18 -25 -16 -42 3 -71 0 -71 -9 0 -4 23 -18 51 -30 28 -11 48 -25
45 -30 -3 -5 -27 -15 -53 -21 -35 -9 -43 -15 -33 -22 8 -5 24 -9 35 -9 17 -1
17 -3 -5 -13 l-25 -11 29 -4 c16 -2 32 2 36 8 5 7 10 8 13 3 4 -6 -6 -16 -21
-22 -25 -12 -26 -14 -8 -26 10 -8 15 -19 11 -25 -4 -7 2 -14 14 -17 26 -7 26
-9 -1 -43 -13 -16 -38 -49 -57 -74 -28 -38 -39 -46 -66 -46 -18 0 -38 -7 -45
-15 -7 -9 -23 -15 -34 -13 -16 2 -21 9 -19 31 1 15 -2 25 -6 23 -20 -13 -44
72 -47 169 -2 55 -5 131 -7 168 -2 37 0 70 4 73 4 2 6 16 4 32 -7 54 3 69 51
76 25 3 52 12 60 20 12 13 11 17 -8 32 -16 11 -17 15 -5 11 21 -8 21 -3 1 28
-12 18 -14 39 -11 77 9 92 13 103 38 115 13 7 23 19 21 28 -2 8 3 15 11 15 8
0 24 9 37 20 12 11 27 17 32 14 6 -4 5 -10 -3 -15z m-495 -53 c-3 -9 -10 -16
-15 -16 -6 0 -5 9 1 21 13 24 24 20 14 -5z m1739 -173 c-7 -2 -19 -2 -25 0 -7
3 -2 5 12 5 14 0 19 -2 13 -5z m-3418 -43 c-3 -5 -12 -10 -18 -10 -7 0 -6 4 3
10 19 12 23 12 15 0z m725 -228 c0 -5 -7 -17 -16 -28 -8 -10 -14 -14 -11 -9 2
6 7 18 10 28 7 17 17 23 17 9z m40 -27 c-7 -9 -15 -13 -17 -11 -7 7 7 26 19
26 6 0 6 -6 -2 -15z m77 -32 c-3 -10 -5 -4 -5 12 0 17 2 24 5 18 2 -7 2 -21 0
-30z m-44 -4 c-4 -13 -9 -17 -15 -11 -11 11 -3 32 12 32 4 0 6 -9 3 -21z m70
1 c-3 -12 -8 -19 -11 -16 -5 6 5 36 12 36 2 0 2 -9 -1 -20z m-137 -45 c-6 -24
-12 -42 -14 -40 -7 6 9 85 17 85 4 0 3 -20 -3 -45z m78 -44 c-3 -9 -7 -21 -7
-28 0 -8 -6 -9 -19 -2 -24 13 -24 -6 0 -21 16 -11 16 -11 -1 -6 -11 3 -22 -2
-29 -14 -7 -11 -16 -20 -21 -20 -4 0 0 11 8 24 9 14 19 50 22 82 l6 57 24 -28
c15 -17 22 -34 17 -44z m30 53 c3 -8 2 -12 -4 -9 -6 3 -10 10 -10 16 0 14 7
11 14 -7z m103 -6 c-3 -8 -6 -5 -6 6 -1 11 2 17 5 13 3 -3 4 -12 1 -19z m-85
-30 c-7 -7 -12 -8 -12 -2 0 14 12 26 19 19 2 -3 -1 -11 -7 -17z m40 -10 c-8
-8 -9 -4 -5 13 4 13 8 18 11 10 2 -7 -1 -18 -6 -23z m819 9 c-10 -9 -11 -8 -5
6 3 10 9 15 12 12 3 -3 0 -11 -7 -18z m-596 3 c3 -5 1 -10 -4 -10 -6 0 -11 5
-11 10 0 6 2 10 4 10 3 0 8 -4 11 -10z m-280 -60 c-10 -11 -22 -20 -27 -20
-10 0 24 38 36 39 5 1 1 -8 -9 -19z m1755 -25 c0 -25 5 -54 11 -64 9 -14 8
-25 -5 -52 -28 -53 -45 -130 -36 -155 7 -19 0 -16 -60 20 -92 54 -111 97 -68
151 12 16 22 40 23 53 0 20 8 28 40 39 22 7 49 22 60 33 29 29 35 25 35 -25z
m-1356 -63 c-12 -9 -24 -24 -27 -32 -4 -10 -6 -9 -6 6 -1 24 17 44 39 44 11 0
10 -5 -6 -18z m667 -239 c-1 -7 3 -13 8 -13 6 0 16 -10 22 -22 12 -23 12 -23
-9 -4 -27 24 -58 82 -66 126 -5 30 -2 27 20 -20 15 -30 26 -61 25 -67z m504
-23 c3 -5 17 -10 30 -10 13 0 26 -4 29 -9 3 -4 16 -7 28 -4 28 4 53 -11 44
-26 -8 -13 -56 -15 -56 -3 0 5 -21 13 -47 18 -33 6 -49 14 -51 27 -4 18 13 24
23 7z m192 -30 c-14 -11 -30 -20 -36 -20 -20 0 -12 20 12 30 39 15 51 11 24
-10z m-3653 -7 c4 -9 3 -20 -1 -24 -13 -13 -37 7 -30 25 8 21 23 20 31 -1z
m1386 -43 c0 -5 -2 -10 -4 -10 -3 0 -8 5 -11 10 -3 6 -1 10 4 10 6 0 11 -4 11
-10z m-63 -16 c-3 -3 -12 -4 -19 -1 -8 3 -5 6 6 6 11 1 17 -2 13 -5z m163 -23
c74 -24 106 -41 78 -41 -9 0 -20 5 -23 10 -4 6 -10 8 -15 5 -4 -3 -37 9 -72
25 -34 17 -56 28 -48 26 8 -3 44 -14 80 -25z m-18 -22 c29 -11 64 -28 78 -37
14 -9 41 -18 61 -18 51 -3 83 -21 67 -38 -10 -10 -32 -5 -119 30 -58 24 -128
49 -155 55 -44 12 -46 14 -24 20 37 10 35 11 92 -12z m873 -9 c-3 -5 -11 -10
-16 -10 -6 0 -7 5 -4 10 3 6 11 10 16 10 6 0 7 -4 4 -10z m-708 -23 c4 -7 0
-8 -11 -4 -10 4 -22 7 -27 7 -5 0 -9 4 -9 9 0 12 38 2 47 -12z m110 -33 c-3
-3 -12 -4 -19 -1 -8 3 -5 6 6 6 11 1 17 -2 13 -5z m562 -97 c-4 -30 -13 -63
-20 -75 -11 -17 -11 -24 -1 -34 18 -18 15 -33 -4 -17 -13 11 -19 8 -38 -16
-22 -28 -23 -28 -28 -7 -4 12 -2 22 3 22 5 0 9 8 9 18 -1 16 -2 16 -15 -1 -7
-11 -11 -25 -8 -33 3 -9 -2 -14 -16 -14 -24 0 -26 11 -10 42 7 12 15 44 19 72
l8 51 1 -43 1 -44 30 29 c17 15 30 33 30 40 0 7 6 16 13 20 8 4 16 16 20 26
11 31 14 18 6 -36z m101 -16 c0 -31 -14 -49 -25 -32 -8 13 5 61 16 61 5 0 9
-13 9 -29z m-23 -76 c-1 -13 -6 -27 -9 -31 -4 -3 -4 -13 -1 -21 6 -14 -45 -68
-54 -59 -6 6 40 106 49 106 3 0 4 10 0 22 -3 15 -2 19 7 14 6 -4 10 -18 8 -31z
m370 -12 c-3 -10 -5 -4 -5 12 0 17 2 24 5 18 2 -7 2 -21 0 -30z m-2314 -43
c-3 -11 -7 -20 -9 -20 -2 0 -4 9 -4 20 0 11 4 20 9 20 5 0 7 -9 4 -20z m2375
-57 c12 -19 21 -38 18 -40 -2 -3 -12 7 -21 21 -10 14 -24 26 -31 26 -8 0 -14
7 -14 15 0 26 24 15 48 -22z m1718 22 c-11 -8 -23 -15 -28 -15 -4 0 -8 -4 -8
-10 0 -5 -9 -19 -20 -30 -27 -27 -29 -103 -2 -93 9 4 26 15 36 25 17 15 17 20
5 35 -8 9 -9 14 -2 10 6 -4 19 0 28 9 9 9 19 14 22 10 10 -10 12 -69 3 -110
-5 -22 -5 -47 -1 -55 12 -20 40 24 48 74 5 31 3 37 -16 42 -17 4 -31 23 -17
23 9 0 76 -42 76 -48 0 -3 -24 -55 -54 -116 -30 -61 -68 -154 -86 -206 -44
-131 -100 -260 -112 -260 -5 0 -8 -6 -8 -14 0 -7 -7 -19 -15 -26 -10 -9 -15
-9 -15 -1 0 6 4 11 9 11 5 0 11 8 15 18 3 9 10 27 16 40 5 12 6 22 1 22 -10 0
-70 -96 -111 -180 -56 -114 -64 -129 -68 -125 -2 2 3 18 12 37 14 31 22 56 63
208 8 30 20 60 25 67 5 7 8 27 7 45 -2 18 3 43 9 55 7 12 12 34 12 49 0 30 12
71 41 146 19 47 22 64 39 198 23 188 18 177 85 179 28 0 29 0 11 -14z m-2295
-42 c13 -34 15 -35 30 -20 9 9 19 14 22 11 3 -3 15 0 27 6 22 12 22 11 7 -10
-9 -12 -26 -28 -39 -34 -28 -15 -27 -65 2 -102 14 -18 14 -18 -10 -3 -32 20
-56 71 -64 137 -8 60 5 68 25 15z m1092 22 c-3 -9 -8 -14 -10 -11 -3 3 -2 9 2
15 9 16 15 13 8 -4z m-1228 -81 c11 -4 27 -16 37 -28 l16 -20 21 24 20 25 -6
-24 c-8 -31 -59 -61 -103 -60 -31 0 -32 1 -12 9 12 5 22 14 22 19 0 19 -65 44
-120 47 -78 4 -77 3 -60 14 16 11 151 6 185 -6z m1310 -3 c-14 -12 -74 -31
-99 -31 -18 0 -18 2 6 14 15 8 40 17 55 19 16 2 32 5 38 6 5 0 5 -2 0 -8z
m-518 -43 c-3 -8 -6 -5 -6 6 -1 11 2 17 5 13 3 -3 4 -12 1 -19z m-861 -43
c-20 -15 -36 -19 -36 -10 0 5 38 23 50 24 3 0 -4 -6 -14 -14z m881 -37 c-3 -8
-6 -5 -6 6 -1 11 2 17 5 13 3 -3 4 -12 1 -19z m243 -8 c11 -11 20 -18 20 -15
0 3 14 -1 30 -10 17 -9 30 -19 30 -24 0 -13 -25 -20 -50 -14 -14 4 -30 -2 -48
-20 -15 -14 -38 -31 -52 -37 -14 -6 -36 -17 -50 -25 -23 -13 -25 -13 -32 6 -9
24 18 79 39 79 6 0 20 14 30 31 12 21 24 29 36 25 13 -3 17 0 13 10 -8 20 11
17 34 -6z m-1172 -70 c-14 -18 -30 -28 -41 -26 -12 3 -21 -3 -27 -18 -4 -12
-19 -30 -32 -38 -23 -15 -25 -15 -36 3 -7 10 -21 19 -31 19 -11 0 -21 6 -24
13 -3 9 -8 9 -21 -2 -15 -12 -19 -12 -33 1 -19 20 -8 58 17 58 10 0 22 -5 25
-10 4 -6 14 -10 23 -8 10 1 23 -1 30 -6 8 -5 18 -4 24 2 8 8 17 8 30 1 12 -6
18 -6 18 0 0 6 7 8 15 5 8 -4 17 1 21 9 3 9 12 13 19 11 7 -3 16 -1 20 5 3 6
11 11 16 11 6 0 0 -13 -13 -30z m-274 -5 c3 -9 -3 -19 -14 -25 -17 -9 -20 -7
-20 8 0 32 23 44 34 17z m1626 -75 c0 -26 -5 -40 -13 -40 -9 0 -11 12 -9 40 2
22 8 40 13 40 5 0 9 -18 9 -40z m-81 -11 c2 -49 -15 -44 -21 6 -2 21 0 35 7
35 6 0 12 -18 14 -41z m191 30 c0 -5 4 -8 9 -4 6 3 1 -27 -11 -67 -11 -40 -23
-83 -26 -96 -2 -12 -9 -25 -14 -28 -6 -4 -8 1 -5 12 21 70 21 73 -14 89 -19 8
-26 14 -17 15 9 0 19 6 21 13 3 7 6 5 6 -5 2 -38 19 -16 26 32 4 28 11 50 16
50 5 0 9 -5 9 -11z m173 -43 c18 -14 58 -37 88 -51 30 -13 42 -22 27 -19 -23
5 -26 3 -21 -15 3 -12 1 -21 -6 -21 -6 0 -11 -9 -11 -20 0 -11 -7 -20 -16 -20
-17 0 -12 29 12 68 8 12 11 22 6 22 -5 0 -17 -18 -27 -40 -17 -37 -33 -49 -48
-34 -3 4 0 19 8 35 8 15 15 36 15 46 0 14 -3 13 -17 -7 -20 -28 -25 -71 -9
-83 6 -5 -9 -5 -34 -2 -25 4 -52 15 -60 25 -8 10 -25 23 -37 29 -21 11 -22 12
-7 62 22 72 31 80 71 64 18 -8 48 -25 66 -39z m-526 -36 c6 -16 8 -30 3 -30
-4 0 -13 14 -19 30 -5 17 -7 30 -3 30 4 0 13 -13 19 -30z m44 3 c13 -16 12
-17 -3 -4 -17 13 -22 21 -14 21 2 0 10 -8 17 -17z m-91 -23 c6 -11 7 -20 2
-20 -6 0 -12 9 -15 20 -3 11 -3 20 -1 20 2 0 8 -9 14 -20z m795 -30 c-3 -5 3
-10 15 -10 20 0 20 -1 -6 -35 -15 -21 -35 -35 -48 -35 -17 0 -18 -2 -6 -10 12
-8 11 -10 -7 -10 -12 0 -25 5 -28 10 -3 6 -1 10 6 10 7 0 9 3 6 6 -4 4 -13 2
-20 -5 -10 -8 -26 -8 -53 -2 -31 7 -34 9 -12 10 14 1 29 7 31 14 3 6 6 3 6 -7
1 -29 16 -8 16 22 0 18 6 28 19 30 11 2 16 0 12 -6 -3 -6 -2 -13 4 -17 6 -4 7
-12 4 -18 -4 -7 6 0 22 15 15 15 24 31 20 35 -5 4 -11 2 -13 -4 -3 -7 -9 -13
-14 -13 -6 0 -8 4 -4 9 3 5 -3 12 -12 14 -10 3 1 5 25 6 27 1 41 -3 37 -9z
m-2028 -63 c-15 -30 -23 -37 -25 -25 -2 10 -12 18 -23 18 -36 0 -19 27 24 37
23 6 43 11 44 12 1 0 -8 -18 -20 -42z m1162 17 c3 -16 1 -17 -13 -5 -19 16
-21 34 -3 29 6 -3 14 -13 16 -24z m921 11 c-20 -24 -3 -31 22 -9 13 10 10 4
-6 -14 -29 -31 -61 -47 -36 -17 8 10 9 15 2 15 -6 0 -16 -8 -21 -17 -6 -10
-11 -14 -11 -10 0 12 43 66 54 66 5 1 3 -6 -4 -14z m50 -30 c-7 -8 -17 -15
-23 -15 -5 0 -2 9 8 20 21 23 35 19 15 -5z m-994 -33 c-12 -11 -36 9 -36 30
l1 23 20 -24 c11 -13 17 -26 15 -29z m429 -37 c-9 -26 -20 -44 -23 -41 -2 3 3
26 13 51 9 26 20 44 23 41 2 -3 -3 -26 -13 -51z m-484 35 c10 -6 19 -17 19
-25 0 -7 6 -16 13 -18 8 -4 7 -6 -3 -6 -14 0 -70 42 -70 54 0 8 20 6 41 -5z
m629 -70 c14 -12 39 -30 57 -41 41 -26 49 -46 17 -46 -13 0 -24 3 -24 8 0 11
-63 68 -92 83 -13 7 -29 11 -36 8 -17 -5 -15 -42 3 -42 21 0 19 -17 -4 -25
-10 -3 -26 -14 -36 -25 -19 -21 -35 -26 -35 -11 0 5 15 35 33 66 30 53 34 56
62 51 17 -4 41 -15 55 -26z m498 -2 c-6 -18 -68 -29 -68 -12 0 13 19 21 53 23
11 0 17 -4 15 -11z m-678 -63 c-7 -20 -14 -34 -17 -31 -3 2 1 20 8 40 17 46
25 38 9 -9z m-2330 25 c0 -5 9 -10 20 -10 31 0 97 -75 120 -136 11 -30 20 -59
20 -64 0 -14 39 -129 53 -159 7 -14 22 -36 35 -49 12 -14 22 -29 22 -34 0 -5
11 -34 25 -64 14 -30 25 -62 25 -70 0 -8 4 -23 9 -32 5 -9 11 -39 14 -67 3
-27 7 -57 8 -65 5 -32 -1 -70 -11 -70 -11 0 -14 7 -24 53 -4 15 -12 27 -19 27
-7 0 -21 15 -31 33 -11 17 -47 61 -81 97 -51 54 -64 74 -75 120 -15 64 -31 86
-71 95 -29 7 -39 24 -44 79 -1 17 -5 38 -7 46 -19 56 -28 121 -20 137 5 10 8
46 7 81 -3 48 0 62 11 62 8 0 14 -4 14 -10z m758 -12 c-8 -12 -21 -24 -29 -27
-12 -4 -12 -2 0 12 7 10 10 17 5 18 -5 0 0 4 11 9 29 12 29 12 13 -12z m2262
12 c0 -5 -5 -10 -11 -10 -5 0 -7 5 -4 10 3 6 8 10 11 10 2 0 4 -4 4 -10z m40
-45 c10 -12 10 -15 -1 -15 -12 0 -12 -2 -1 -9 11 -6 10 -11 -3 -25 -9 -9 -21
-14 -25 -11 -10 6 -50 -14 -62 -30 -10 -13 -10 16 0 32 4 6 23 16 42 22 l35
11 -42 -3 c-73 -4 -43 29 38 42 4 1 12 -6 19 -14z m-2370 -25 c-29 -23 -50
-25 -50 -7 0 20 7 24 43 25 l32 1 -25 -19z m2007 -12 c8 -6 32 -7 59 -3 36 5
50 3 65 -10 12 -12 28 -16 46 -12 31 6 63 -7 63 -25 0 -9 -3 -9 -12 0 -13 13
-78 17 -78 4 0 -5 -6 -16 -13 -26 -12 -16 -13 -14 -9 18 4 31 1 36 -21 41 -16
4 -34 1 -50 -10 -20 -13 -30 -14 -47 -5 -12 6 -34 9 -50 5 -17 -4 -31 -2 -36
6 -5 9 -2 10 9 6 19 -7 22 4 7 19 -14 14 50 6 67 -8z m-390 0 c-2 -7 -10 -36
-17 -65 -13 -49 -14 -51 -38 -40 -20 9 -26 8 -41 -12 -32 -42 -70 -12 -96 77
-5 19 -3 22 22 23 15 0 53 7 83 14 75 17 93 17 87 3z m158 -58 c3 -11 3 -25
-1 -31 -9 -15 -69 -39 -96 -39 -20 1 -16 7 27 45 28 25 53 45 57 45 4 0 9 -9
13 -20z m270 0 c-3 -5 -11 -10 -16 -10 -6 0 -7 5 -4 10 3 6 11 10 16 10 6 0 7
-4 4 -10z m348 -4 c3 -7 0 -19 -6 -25 -8 -8 -8 -11 1 -11 6 0 16 8 21 18 9 15
10 15 11 -4 0 -14 -13 -27 -44 -42 -24 -12 -51 -22 -60 -22 -9 0 -16 -7 -16
-15 0 -11 12 -15 44 -15 57 0 76 -8 76 -31 0 -14 -7 -19 -25 -19 -14 0 -24 5
-22 12 3 15 -71 29 -77 14 -2 -6 -5 7 -5 29 -1 22 -4 51 -7 65 -5 24 -5 24 8
4 11 -18 18 -19 46 -12 17 5 32 11 32 14 0 4 -9 4 -21 1 -41 -11 -64 14 -37
41 16 16 75 15 81 -2z m-187 -11 c-13 -10 -17 -21 -12 -39 7 -29 -13 -36 -33
-12 -19 23 6 66 38 66 25 -1 25 -1 7 -15z m-3115 -132 c-10 -4 -11 -7 -1 -13
14 -9 7 -40 -9 -40 -13 0 -22 27 -15 45 4 8 14 15 23 14 12 0 12 -2 2 -6z
m3279 -33 c11 -7 0 -10 -38 -10 -33 0 -51 4 -47 10 8 13 65 13 85 0z m-200 -8
c0 -4 -16 -12 -35 -18 -26 -8 -35 -8 -32 0 2 6 17 14 33 17 16 4 30 7 32 8 1
0 2 -2 2 -7z m-3471 -37 c11 -14 24 -48 30 -75 17 -81 -6 -104 -54 -52 -33 35
-49 91 -35 126 12 33 33 33 59 1z m465 -18 c23 -17 15 -66 -14 -92 -19 -17
-20 -16 -30 11 -13 34 -4 94 14 94 6 0 20 -6 30 -13z m146 -174 c0 -12 -5 -25
-10 -28 -6 -4 -8 -10 -6 -14 3 -4 -6 -14 -19 -21 -46 -25 -73 23 -37 66 40 49
71 48 72 -3z m4622 -115 c-8 -8 -9 -4 -5 13 4 13 8 18 11 10 2 -7 -1 -18 -6
-23z m-187 -18 c-3 -5 0 -10 7 -10 8 0 14 -9 14 -20 0 -20 -1 -20 -18 2 -20
26 -22 38 -7 38 5 0 7 -4 4 -10z m98 -96 c-3 -8 -11 -14 -18 -14 -7 0 -15 6
-18 14 -4 9 2 14 18 14 16 0 22 -5 18 -14z m57 -14 c-20 -13 -50 -13 -50 0 0
6 15 10 33 10 24 0 28 -3 17 -10z m-10 -133 c0 -5 11 -6 25 -3 19 5 23 3 19
-9 -4 -10 -14 -13 -33 -9 -42 10 -45 10 -48 -11 -3 -15 -2 -16 5 -6 7 9 11 5
14 -18 4 -25 1 -31 -11 -28 -9 2 -15 9 -13 15 1 7 -2 12 -6 12 -4 0 -8 12 -7
28 0 16 -5 26 -12 25 -7 -2 -13 1 -13 5 0 5 18 9 40 9 22 0 40 -4 40 -10z
m140 1 c0 -5 -4 -6 -10 -3 -5 3 -10 2 -10 -4 0 -5 -9 -9 -20 -8 -19 1 -25 8
-16 18 9 9 56 6 56 -3z m-113 -44 c-3 -3 -12 -4 -19 -1 -8 3 -5 6 6 6 11 1 17
-2 13 -5z m42 -69 c1 -5 -6 -2 -15 7 -10 9 -13 21 -8 29 5 9 9 8 15 -7 4 -10
8 -23 8 -29z m166 -15 c3 -5 1 -10 -4 -10 -6 0 -11 5 -11 10 0 6 2 10 4 10 3
0 8 -4 11 -10z m143 -91 c4 -11 2 -11 -8 -2 -10 9 -16 8 -28 -3 -8 -8 -17 -12
-20 -9 -7 7 30 35 42 32 6 -2 12 -10 14 -18z m-108 -31 c0 -6 -6 -5 -15 2 -8
7 -15 14 -15 16 0 2 7 1 15 -2 8 -4 15 -11 15 -16z m-52 -9 c-2 -6 -8 -11 -13
-11 -6 0 -18 -4 -27 -9 -12 -6 -18 -6 -18 0 0 12 29 30 48 31 8 0 12 -5 10
-11z m190 -31 c-2 -6 -13 -12 -24 -14 -19 -3 -19 -3 0 12 24 17 29 18 24 2z
m-167 -61 c-13 -13 -26 -3 -16 12 3 6 11 8 17 5 6 -4 6 -10 -1 -17z m-54 -14
c-3 -3 -11 -2 -17 2 -9 6 -9 10 1 16 14 8 27 -7 16 -18z m18 -23 c-4 -11 -2
-20 4 -20 6 0 11 -3 11 -7 0 -5 -13 -8 -29 -8 -21 0 -27 4 -23 15 14 37 48 55
37 20z m125 -59 c0 -5 -7 -12 -16 -15 -14 -5 -15 -4 -4 9 14 17 20 19 20 6z
m20 -75 c0 -3 -4 -8 -10 -11 -5 -3 -10 -1 -10 4 0 6 5 11 10 11 6 0 10 -2 10
-4z m-545 -106 c3 -5 2 -10 -4 -10 -5 0 -13 5 -16 10 -3 6 -2 10 4 10 5 0 13
-4 16 -10z m128 -87 c43 -29 86 -53 96 -53 10 0 35 -7 55 -15 38 -16 126 -22
145 -11 6 4 28 2 49 -5 44 -16 46 -16 72 -18 11 0 20 -6 20 -11 0 -7 -16 -9
-40 -6 -34 4 -40 2 -40 -13 0 -53 -90 -99 -170 -86 -19 3 -56 8 -82 12 -26 3
-53 12 -59 19 -13 15 -4 48 10 40 5 -3 11 12 13 34 4 43 2 44 -55 40 -30 -2
-77 38 -77 66 0 7 -4 14 -9 14 -5 0 -11 8 -15 18 -3 9 -9 23 -12 31 -8 16 -7
16 99 -56z m553 -217 c18 -19 2 -30 -32 -22 -21 6 -24 9 -14 21 16 19 28 19
46 1z m-1312 -38 c9 -12 13 -24 11 -27 -6 -5 -45 29 -45 41 0 15 19 8 34 -14z
m-2880 -93 c-4 -8 -8 -15 -10 -15 -2 0 -4 7 -4 15 0 8 4 15 10 15 5 0 7 -7 4
-15z m-261 -140 c-3 -9 -8 -14 -10 -11 -3 3 -2 9 2 15 9 16 15 13 8 -4z m4417
-234 c30 -7 -166 -70 -286 -91 -85 -15 -127 -2 -132 41 -4 34 32 51 128 58 58
5 262 -1 290 -8z"/>
<path d="M3176 5573 c-6 -14 -5 -15 5 -6 7 7 10 15 7 18 -3 3 -9 -2 -12 -12z"/>
<path d="M2190 4084 c0 -14 4 -23 10 -19 6 3 10 15 10 26 0 10 -4 19 -10 19
-5 0 -10 -12 -10 -26z"/>
<path d="M3918 2793 c5 -21 7 -23 10 -9 2 10 0 22 -6 28 -6 6 -7 0 -4 -19z"/>
<path d="M3890 2719 c0 -5 5 -7 10 -4 6 3 10 8 10 11 0 2 -4 4 -10 4 -5 0 -10
-5 -10 -11z"/>
<path d="M4390 2340 c-13 -9 -13 -10 0 -9 8 0 24 4 35 9 l20 9 -20 0 c-11 0
-27 -4 -35 -9z"/>
<path d="M5491 6201 c-11 -7 -11 -13 0 -32 11 -20 14 -21 17 -6 6 29 -2 47
-17 38z"/>
<path d="M6035 6100 c-6 -10 3 -731 9 -738 2 -1 6 100 9 225 6 208 1 512 -7
521 -2 2 -7 -2 -11 -8z"/>
<path d="M5480 6049 c0 -6 -8 -8 -20 -4 -18 6 -18 3 6 -51 l25 -57 -13 -401
c-16 -499 -16 -502 -1 -517 7 -7 14 -11 17 -8 2 2 7 239 11 527 7 477 6 522
-9 522 -9 0 -16 -5 -16 -11z"/>
<path d="M5743 6000 c4 -18 7 -40 7 -49 0 -14 2 -14 9 -1 6 8 7 19 3 25 -3 5
1 4 10 -3 13 -10 18 -10 24 -1 4 8 2 15 -5 17 -8 3 -23 14 -34 25 l-20 20 6
-33z"/>
<path d="M4495 5835 c-11 -81 -11 -98 1 -102 14 -5 26 100 15 130 -7 18 -10
13 -16 -28z"/>
<path d="M6911 5554 c0 -11 3 -14 6 -6 3 7 2 16 -1 19 -3 4 -6 -2 -5 -13z"/>
<path d="M6795 5490 c-3 -5 -1 -10 4 -10 6 0 11 5 11 10 0 6 -2 10 -4 10 -3 0
-8 -4 -11 -10z"/>
<path d="M6820 4984 c0 -14 4 -23 10 -19 6 3 10 15 10 26 0 10 -4 19 -10 19
-5 0 -10 -12 -10 -26z"/>
<path d="M6027 4953 c-3 -21 -8 -47 -11 -58 -4 -11 0 -8 7 8 7 15 15 25 18 23
3 -3 3 10 1 29 -2 19 -5 35 -7 35 -1 0 -5 -17 -8 -37z"/>
<path d="M2428 4974 c-12 -11 -9 -104 2 -104 6 0 13 6 16 14 7 19 -9 100 -18
90z"/>
<path d="M6670 4906 c0 -23 16 -27 17 -5 1 10 -2 19 -8 19 -5 0 -9 -6 -9 -14z"/>
<path d="M6791 4873 c-1 -7 -9 -20 -20 -30 -10 -10 -22 -28 -25 -40 -7 -21 -4
-23 36 -23 24 0 50 5 58 10 11 7 11 10 2 10 -7 0 -11 4 -7 9 3 5 1 12 -5 16
-5 3 -10 15 -10 26 0 11 -4 18 -9 15 -5 -4 -12 0 -14 6 -4 10 -6 10 -6 1z"/>
<path d="M6015 4843 c-15 -56 -13 -83 7 -83 16 0 18 7 14 51 -5 60 -11 70 -21
32z"/>
<path d="M5465 4790 c-18 -55 -12 -76 19 -64 14 5 15 15 10 58 -4 28 -8 52 -9
54 -2 2 -11 -20 -20 -48z"/>
<path d="M5311 4768 c-21 -35 -15 -52 15 -46 14 2 20 14 22 41 4 46 -9 47 -37
5z"/>
<path d="M4816 4743 c-11 -11 -6 -23 9 -23 8 0 15 4 15 9 0 13 -16 22 -24 14z"/>
<path d="M4480 4722 c0 -15 5 -18 25 -14 30 5 28 26 -3 30 -16 3 -22 -2 -22
-16z"/>
<path d="M4917 4734 c-10 -11 3 -24 22 -24 10 0 24 7 31 15 11 13 8 15 -17 15
-16 0 -33 -3 -36 -6z"/>
<path d="M1693 4698 c-40 -19 -25 -28 39 -22 69 6 73 8 63 23 -8 14 -73 13
-102 -1z"/>
<path d="M2941 4614 c-81 -86 -142 -200 -165 -305 -8 -35 -19 -80 -25 -99 -27
-88 -1 -54 30 40 25 73 91 198 143 268 18 26 43 64 55 85 12 21 29 49 37 63
32 48 -6 22 -75 -52z"/>
<path d="M4594 4629 c-3 -6 -4 -11 -3 -12 2 -1 14 -8 26 -14 30 -17 43 -16 43
1 0 18 -57 39 -66 25z"/>
<path d="M6660 4630 c-230 -12 -236 -12 -215 -17 35 -9 46 -25 43 -62 -3 -33
-1 -36 23 -36 52 0 55 -10 48 -167 -4 -78 -10 -384 -14 -679 -6 -415 -5 -545
5 -573 7 -21 16 -34 20 -29 5 4 12 46 15 93 4 46 10 91 14 100 5 8 6 20 4 27
-2 6 1 14 6 18 6 3 11 -1 11 -9 0 -9 5 -16 11 -16 6 0 9 8 6 19 -3 15 0 17 16
13 13 -3 25 2 33 13 12 16 14 -5 14 -143 0 -154 1 -162 19 -162 38 0 35 -30
46 485 4 187 9 342 10 346 2 3 5 145 6 317 1 171 6 316 9 322 4 6 27 9 56 7
l49 -5 -5 -413 c-9 -782 -7 -1043 10 -1046 8 -2 20 0 27 5 13 8 30 462 39
1087 3 214 8 393 10 397 3 4 23 8 45 8 l39 0 0 55 0 55 -127 -2 c-71 -1 -193
-5 -273 -8z m34 -206 c21 -20 20 -43 -1 -66 -41 -46 -91 3 -67 66 8 21 48 21
68 0z m3 -1046 c-3 -7 -5 -2 -5 12 0 14 2 19 5 13 2 -7 2 -19 0 -25z"/>
<path d="M5992 4599 c-133 -3 -245 -8 -248 -12 -10 -9 -10 -830 -1 -949 8 -92
12 -111 33 -135 l24 -28 1 100 c1 147 9 189 37 193 16 2 22 10 22 27 0 13 3
32 7 42 6 15 9 13 14 -12 5 -22 7 -15 8 30 0 38 -3 55 -8 46 -6 -9 -11 0 -16
30 -10 58 -14 64 -31 42 -12 -16 -13 -1 -12 110 l1 127 26 2 c14 0 33 1 41 2
20 1 27 46 7 46 -17 0 -30 27 -21 41 3 5 10 7 15 3 5 -3 16 -1 23 6 14 11 62
4 71 -10 3 -5 1 -28 -4 -53 -11 -46 -4 -117 10 -117 5 0 9 11 9 25 0 34 13 31
27 -6 7 -17 16 -28 21 -25 5 3 12 -13 15 -36 3 -24 11 -44 16 -46 14 -5 15
-42 1 -42 -5 0 -16 -12 -24 -27 -9 -17 -16 -22 -16 -13 -1 8 -10 -3 -20 -25
-15 -31 -19 -65 -19 -157 -1 -108 0 -117 19 -123 17 -6 20 -15 20 -75 0 -59 2
-68 20 -73 11 -3 20 -1 20 5 0 5 4 7 8 4 21 -13 34 16 38 85 2 41 7 117 12
169 10 108 6 178 -13 200 -27 32 -28 60 -2 99 14 21 28 56 32 77 12 72 16 85
25 79 6 -3 10 1 10 9 0 9 0 19 0 24 0 4 -6 7 -12 7 -15 0 -21 25 -10 41 4 7
18 14 32 15 22 4 25 1 23 -26 -5 -58 -3 -111 8 -196 11 -79 10 -91 -9 -142
-18 -48 -22 -84 -26 -257 -3 -163 -1 -203 10 -215 8 -7 15 -26 15 -42 2 -37
17 79 18 142 0 36 -2 46 -9 35 -16 -24 -10 49 7 88 10 23 16 91 19 235 3 111
8 205 10 209 4 7 15 104 35 318 5 63 15 120 20 126 8 9 -2 12 -38 11 -26 -1
-157 -5 -291 -8z m40 -307 c5 -18 -12 -52 -26 -52 -8 0 -8 55 1 63 11 12 20 8
25 -11z"/>
<path d="M3000 4524 c-14 -35 -13 -46 7 -73 l16 -24 14 47 c11 37 11 51 2 62
-17 21 -28 17 -39 -12z"/>
<path d="M1164 4414 c-10 -8 -13 -13 -7 -9 9 4 11 1 7 -9 -3 -9 -11 -13 -17
-9 -6 3 -7 1 -3 -5 10 -16 12 -15 36 10 33 36 22 53 -16 22z"/>
<path d="M2845 4335 c-35 -85 -45 -121 -45 -155 0 -21 -5 -42 -10 -45 -6 -4
-9 -14 -6 -23 3 -10 10 -66 17 -127 6 -60 14 -111 19 -113 4 -1 5 -14 2 -27
-2 -15 0 -25 7 -25 7 0 9 -9 5 -24 -3 -13 -1 -27 5 -31 6 -3 9 -11 5 -16 -8
-14 6 -69 17 -69 13 0 1 157 -14 184 -13 27 -12 318 3 392 13 67 10 116 -5 79z"/>
<path d="M3180 4286 c0 -8 5 -18 10 -21 6 -3 10 1 10 9 0 8 -4 18 -10 21 -5 3
-10 -1 -10 -9z"/>
<path d="M3137 4250 c-4 -15 0 -20 15 -20 13 0 18 6 16 17 -5 24 -25 27 -31 3z"/>
<path d="M996 4121 c-4 -7 -5 -15 -2 -18 9 -9 19 4 14 18 -4 11 -6 11 -12 0z"/>
<path d="M2634 4119 c-3 -6 -15 -9 -25 -6 -10 3 -26 -1 -36 -9 -15 -11 -16
-15 -4 -23 7 -5 10 -14 7 -20 -4 -6 -2 -11 3 -11 6 0 11 -6 11 -14 0 -8 7 -17
16 -20 21 -8 20 -8 39 10 15 15 14 18 -5 31 -24 17 -25 31 -3 55 9 10 13 18
10 18 -3 0 -9 -5 -13 -11z"/>
<path d="M2680 4060 c0 -5 5 -10 11 -10 5 0 7 5 4 10 -3 6 -8 10 -11 10 -2 0
-4 -4 -4 -10z"/>
<path d="M2758 4011 c-2 -21 0 -49 3 -62 6 -22 7 -21 8 7 1 17 4 46 7 63 4 18
2 31 -4 31 -5 0 -12 -17 -14 -39z"/>
<path d="M5966 3904 c-9 -24 -7 -224 3 -224 8 0 21 116 21 191 0 40 -14 59
-24 33z"/>
<path d="M6167 3903 c-4 -3 -6 -45 -6 -92 l2 -86 8 89 c9 89 8 102 -4 89z"/>
<path d="M5932 3870 c0 -14 2 -19 5 -12 2 6 2 18 0 25 -3 6 -5 1 -5 -13z"/>
<path d="M1135 3708 c-52 -32 -80 -97 -70 -164 3 -24 9 -44 13 -44 4 0 16 28
26 63 10 34 28 72 39 85 27 30 93 50 110 33 9 -9 4 -18 -21 -42 -36 -34 -39
-44 -15 -57 23 -14 93 33 93 62 0 46 -127 93 -175 64z"/>
<path d="M1016 3672 c-2 -4 0 -14 5 -22 8 -13 10 -13 19 0 5 8 10 18 10 23 0
10 -28 9 -34 -1z"/>
<path d="M981 3554 c0 -11 3 -14 6 -6 3 7 2 16 -1 19 -3 4 -6 -2 -5 -13z"/>
<path d="M796 3493 c-6 -14 -5 -15 5 -6 7 7 10 15 7 18 -3 3 -9 -2 -12 -12z"/>
<path d="M1032 3420 c0 -14 2 -19 5 -12 2 6 2 18 0 25 -3 6 -5 1 -5 -13z"/>
<path d="M1371 3404 c0 -11 3 -14 6 -6 3 7 2 16 -1 19 -3 4 -6 -2 -5 -13z"/>
<path d="M1041 3374 c0 -11 3 -14 6 -6 3 7 2 16 -1 19 -3 4 -6 -2 -5 -13z"/>
<path d="M1126 3358 c12 -22 47 -58 56 -58 21 0 4 30 -28 49 -19 12 -32 15
-28 9z"/>
<path d="M1067 3334 c-6 -10 9 -42 16 -34 3 3 1 14 -3 24 -3 11 -9 15 -13 10z"/>
<path d="M1291 3281 c-14 -9 -7 -51 10 -51 5 0 9 -7 9 -15 0 -8 -8 -15 -17
-15 -10 0 -1 -9 20 -20 61 -33 71 -14 34 59 -24 48 -34 56 -56 42z"/>
<path d="M368 2993 c7 -3 16 -2 19 1 4 3 -2 6 -13 5 -11 0 -14 -3 -6 -6z"/>
<path d="M1801 2924 c-6 -14 -8 -30 -5 -36 4 -6 0 -14 -7 -19 -11 -7 -11 -9 2
-9 12 0 18 12 22 42 7 51 4 57 -12 22z"/>
<path d="M124 2892 c-64 -36 -124 -81 -124 -94 0 -6 10 -3 22 6 13 9 57 38 98
66 81 55 84 65 4 22z"/>
<path d="M2730 2892 c0 -6 23 -67 51 -134 59 -143 66 -163 44 -125 -8 15 -22
27 -30 27 -19 0 -19 -48 0 -155 8 -44 14 -84 14 -90 0 -5 -20 31 -45 80 -24
50 -42 79 -39 65 3 -14 8 -56 11 -93 7 -73 22 -97 57 -97 25 0 75 -35 65 -45
-4 -4 -21 -3 -37 3 -17 6 -33 7 -35 3 -9 -14 85 -51 160 -63 l74 -12 -37 -12
c-54 -19 -91 -62 -119 -138 -55 -152 -15 -356 76 -389 13 -5 13 -6 0 -6 -8 -1
-28 8 -45 19 -33 22 -80 26 -91 8 -4 -6 -3 -8 3 -5 6 4 13 0 16 -7 4 -10 -2
-16 -16 -18 -16 -2 -3 -12 51 -38 67 -32 89 -50 60 -50 -7 0 8 -21 32 -46 28
-29 37 -44 25 -39 -50 19 -54 18 -48 -7 8 -30 52 -67 81 -68 12 0 41 -14 64
-30 22 -16 49 -30 58 -30 10 0 29 -9 43 -20 14 -11 29 -20 34 -20 5 0 17 -10
28 -22 l19 -23 9 35 c5 19 12 72 16 117 3 45 11 87 18 94 9 9 11 -19 9 -125
l-2 -137 30 -13 c70 -31 95 -36 171 -39 l80 -2 -3 30 c-2 17 -8 34 -13 40 -5
5 -9 24 -9 42 0 18 -4 33 -10 33 -5 0 -10 -10 -10 -22 0 -48 -12 -5 -16 59 -7
98 -13 133 -26 133 -7 0 -6 6 2 15 7 9 10 19 6 22 -4 4 -11 1 -16 -7 -6 -8
-10 -10 -10 -4 0 10 -42 19 -135 29 -16 1 -47 10 -67 19 -21 9 -40 16 -44 16
-3 0 -26 14 -51 30 -24 17 -48 30 -52 30 -4 0 -18 9 -30 19 -12 11 -40 23 -62
26 -70 12 -91 29 -114 93 -12 33 -22 86 -23 123 -1 35 -4 80 -7 100 -4 22 -2
40 4 44 6 3 20 24 31 45 23 46 64 70 117 70 25 0 74 18 146 53 l109 53 -24 22
c-13 11 -52 45 -88 74 -36 29 -83 70 -105 90 -22 20 -63 54 -90 75 -74 57
-138 128 -233 262 -18 25 -32 40 -32 33z m190 -1233 c0 -6 -4 -7 -10 -4 -5 3
-10 11 -10 16 0 6 5 7 10 4 6 -3 10 -11 10 -16z m628 -344 c-3 -3 -9 2 -12 12
-6 14 -5 15 5 6 7 -7 10 -15 7 -18z"/>
<path d="M1763 2835 c-9 -25 2 -27 22 -5 17 18 17 20 1 20 -9 0 -19 -7 -23
-15z"/>
<path d="M1100 2810 c-8 -5 -24 -10 -35 -10 -11 0 -40 -10 -65 -23 -71 -36
-72 -37 -60 -52 8 -10 45 -13 141 -11 145 1 153 5 147 69 -3 31 -4 32 -58 35
-30 1 -62 -2 -70 -8z"/>
<path d="M1668 2783 c-24 -6 -23 -23 2 -23 11 0 20 7 20 15 0 8 -1 14 -2 14
-2 -1 -11 -3 -20 -6z"/>
<path d="M6268 2758 c-16 -6 -28 -17 -28 -27 0 -14 17 -19 108 -30 59 -7 123
-17 142 -22 19 -5 47 -9 63 -9 23 0 27 4 27 29 0 16 -6 34 -13 40 -8 6 -61 13
-118 16 -57 3 -115 7 -129 9 -14 2 -37 -1 -52 -6z"/>
<path d="M730 2743 c-14 -10 -35 -30 -48 -45 -12 -15 -34 -28 -48 -30 -39 -5
-23 -23 17 -20 29 2 41 -2 56 -22 21 -26 38 -23 44 9 2 10 24 32 47 48 l43 29
-22 24 c-27 28 -55 30 -89 7z"/>
<path d="M6914 2725 c-3 -14 -4 -39 -1 -55 4 -16 2 -30 -3 -32 -10 -3 -33 -99
-45 -188 -4 -25 -11 -65 -16 -90 -6 -25 -26 -135 -44 -245 -19 -110 -37 -211
-40 -225 -3 -14 -9 -50 -14 -80 -5 -30 -17 -95 -26 -145 -9 -49 -34 -196 -56
-325 -22 -129 -51 -291 -64 -360 -13 -69 -26 -156 -30 -195 -5 -61 -4 -68 8
-52 16 19 39 22 66 7 10 -5 39 -11 64 -13 26 -2 52 -9 59 -14 7 -6 30 -12 50
-15 33 -3 39 -1 49 23 6 15 8 37 4 48 -4 13 -2 21 5 21 8 0 8 6 0 20 -8 15 -7
18 2 15 16 -6 44 35 30 44 -5 3 -11 18 -14 34 -4 22 -3 25 8 16 8 -6 14 -18
14 -27 0 -8 3 -12 7 -9 7 8 -26 87 -37 87 -3 0 -6 27 -7 60 -1 33 3 60 9 60 5
0 7 8 3 19 -3 10 1 24 10 31 10 8 13 22 10 41 -5 25 -2 29 19 29 16 0 27 7 31
20 3 11 10 20 15 20 5 0 11 13 15 29 3 16 13 32 21 35 8 3 14 13 14 21 0 10 5
13 12 9 8 -5 9 -2 5 9 -3 9 -2 19 3 22 6 4 10 75 10 166 0 137 -2 159 -16 159
-8 0 -12 5 -8 11 4 7 -1 10 -12 7 -11 -2 -27 4 -37 13 -18 16 -20 16 -37 -1
-10 -10 -26 -30 -35 -44 -22 -33 -37 -33 -29 -1 3 14 2 25 -4 25 -5 0 -17 16
-26 35 -9 19 -22 35 -28 35 -5 0 -8 6 -5 14 3 8 0 19 -7 25 -13 11 -14 50 -3
86 3 11 8 33 11 49 7 38 14 43 30 21 12 -17 14 -15 20 17 4 24 13 38 26 41 13
3 18 11 14 20 -3 8 -1 18 5 22 6 3 11 -1 11 -9 0 -19 27 -46 46 -46 10 0 14
13 14 45 0 36 -4 47 -22 56 -13 7 -24 12 -25 11 -6 -4 -4 4 6 28 l10 25 0 -26
c1 -26 24 -45 42 -33 15 9 0 24 -17 17 -12 -4 -14 1 -12 23 2 24 -1 30 -20 32
-12 2 -20 8 -16 13 3 6 0 24 -7 41 -9 22 -9 32 -1 37 8 5 6 12 -8 23 -13 12
-18 28 -17 55 3 33 6 38 30 41 15 2 27 6 28 10 6 80 6 85 -14 90 -18 5 -19 11
-13 76 7 86 15 118 28 110 5 -3 4 -11 -2 -19 -7 -8 -10 -22 -7 -32 4 -14 5
-14 6 4 1 20 5 22 54 18 28 -2 41 -2 27 1 -31 7 -50 30 -50 61 0 20 -5 23 -35
23 -29 0 -36 -4 -41 -25z m-54 -1174 c12 -8 12 -17 -3 -65 -18 -56 -18 -56
-58 -56 -21 0 -39 3 -39 6 0 4 13 22 30 40 16 19 33 46 36 59 7 27 12 29 34
16z m4 -802 c-3 -5 -10 -7 -15 -3 -5 3 -7 10 -3 15 3 5 10 7 15 3 5 -3 7 -10
3 -15z"/>
<path d="M6941 2594 c0 -11 3 -14 6 -6 3 7 2 16 -1 19 -3 4 -6 -2 -5 -13z"/>
<path d="M3165 2590 c-8 -12 43 -60 63 -60 11 0 5 11 -18 35 -38 39 -37 39
-45 25z"/>
<path d="M6430 2561 c0 -17 5 -33 10 -36 6 -4 10 8 10 29 0 20 -4 36 -10 36
-5 0 -10 -13 -10 -29z"/>
<path d="M3155 2530 c21 -24 26 -25 19 -6 -3 8 -13 17 -22 21 -13 5 -13 2 3
-15z"/>
<path d="M82 2448 c2 -7 25 -24 51 -37 39 -20 47 -29 47 -52 0 -26 -26 -53
-70 -72 -8 -4 -23 -12 -32 -19 -14 -10 -23 -8 -48 10 l-30 23 0 -298 0 -298
56 60 c31 33 92 97 135 142 44 45 79 87 79 92 0 5 -8 16 -19 23 -28 20 -52 74
-45 103 5 19 16 27 48 35 87 22 113 32 191 73 60 31 82 49 89 70 15 42 -7 57
-93 63 -40 2 -81 9 -91 14 -10 6 -41 10 -68 10 -61 0 -109 16 -143 46 -27 25
-63 33 -57 12z"/>
<path d="M6936 2352 c-3 -6 -1 -14 5 -17 15 -10 25 3 12 16 -7 7 -13 7 -17 1z"/>
<path d="M2738 2333 c6 -2 18 -2 25 0 6 3 1 5 -13 5 -14 0 -19 -2 -12 -5z"/>
<path d="M2688 2323 c7 -3 16 -2 19 1 4 3 -2 6 -13 5 -11 0 -14 -3 -6 -6z"/>
<path d="M2597 2262 c-38 -39 -78 -124 -76 -165 0 -18 2 -17 10 8 21 62 42
104 50 99 5 -3 6 1 3 9 -3 8 9 31 26 51 42 47 34 46 -13 -2z"/>
<path d="M6972 2273 c-15 -6 -6 -23 14 -23 8 0 14 7 14 15 0 15 -6 17 -28 8z"/>
<path d="M2506 2053 c-9 -31 1 -106 20 -148 10 -22 17 -45 16 -51 -3 -16 32
-44 75 -60 43 -15 134 -19 96 -4 -12 5 -29 20 -38 34 -9 14 -25 28 -34 31 -28
9 -81 65 -87 94 -4 14 -13 34 -22 43 -9 11 -12 27 -8 42 7 28 -10 46 -18 19z"/>
<path d="M7047 1987 c-5 -27 -6 -51 -3 -55 12 -12 17 7 14 54 l-3 49 -8 -48z"/>
<path d="M3365 1869 c-9 -13 12 -29 38 -29 26 0 17 34 -10 38 -11 2 -24 -2
-28 -9z"/>
<path d="M2500 1811 c0 -15 64 -61 85 -61 40 0 34 12 -22 41 -61 32 -63 33
-63 20z"/>
<path d="M3288 1789 c-23 -25 -7 -25 23 1 16 13 19 19 9 19 -8 0 -23 -9 -32
-20z"/>
<path d="M3030 1780 c-13 -8 -13 -10 2 -10 9 0 20 5 23 10 8 13 -5 13 -25 0z"/>
<path d="M3406 1755 c-3 -8 -13 -15 -22 -15 -10 0 -14 -6 -11 -14 3 -7 1 -18
-5 -24 -6 -6 0 -13 20 -20 25 -9 28 -14 24 -41 -4 -32 7 -39 42 -25 23 9 21
79 -2 102 -9 9 -16 25 -14 35 4 21 -24 23 -32 2z"/>
<path d="M2370 1593 c0 -5 7 -16 14 -25 11 -15 15 -16 32 -3 17 13 17 14 2 15
-10 0 -18 5 -18 10 0 6 -7 10 -15 10 -8 0 -15 -3 -15 -7z"/>
<path d="M2745 1303 c15 -89 25 -177 25 -213 l0 -41 43 6 c45 7 125 9 225 7
55 -2 64 -5 73 -26 14 -30 78 -44 95 -21 6 8 15 15 19 15 23 0 41 31 37 65 -5
43 -45 75 -102 82 -29 4 -37 9 -33 21 4 9 2 13 -4 9 -6 -4 -18 4 -27 17 -9 14
-27 26 -43 28 -20 2 -28 9 -28 22 0 28 -24 32 -33 5 -6 -15 -11 -18 -16 -11
-10 17 -56 15 -56 -2 0 -9 -7 -12 -20 -9 -11 3 -27 0 -35 -7 -15 -12 -39 -5
-30 10 3 5 -2 15 -11 24 -11 12 -20 13 -33 6 -21 -11 -31 -4 -31 22 0 10 -4
18 -10 18 -5 0 -7 -12 -5 -27z"/>
<path d="M6040 1315 c8 -11 15 -21 16 -23 1 -2 5 5 8 15 4 9 4 14 0 10 -4 -4
-14 -1 -23 6 -14 11 -15 10 -1 -8z"/>
<path d="M6053 1265 c-3 -9 -3 -18 -1 -21 3 -3 8 4 11 16 6 23 -1 27 -10 5z"/>
<path d="M6086 1137 c3 -10 9 -15 12 -12 3 3 0 11 -7 18 -10 9 -11 8 -5 -6z"/>
<path d="M6130 1089 c0 -5 5 -7 10 -4 6 3 10 8 10 11 0 2 -4 4 -10 4 -5 0 -10
-5 -10 -11z"/>
<path d="M6375 1089 c-4 -6 -5 -12 -2 -15 2 -3 7 2 10 11 7 17 1 20 -8 4z"/>
<path d="M6426 1043 c-6 -14 -5 -15 5 -6 7 7 10 15 7 18 -3 3 -9 -2 -12 -12z"/>
<path d="M3111 933 c-7 -32 -13 -71 -14 -88 l-2 -30 102 -9 c56 -5 109 -6 117
-3 26 10 18 35 -13 42 -16 3 -32 13 -35 21 -3 8 -19 14 -36 14 -19 0 -30 5
-30 14 0 8 -7 22 -16 30 -8 9 -12 16 -8 16 3 0 2 6 -4 13 -6 6 -10 17 -9 22 1
6 -7 11 -19 13 -18 3 -23 -5 -33 -55z"/>
<path d="M7001 844 c0 -11 3 -14 6 -6 3 7 2 16 -1 19 -3 4 -6 -2 -5 -13z"/>
<path d="M3142 605 c-13 -7 -28 -17 -33 -22 -5 -5 -11 -80 -14 -167 -4 -116
-9 -165 -21 -188 -22 -42 -7 -50 81 -44 39 3 140 8 225 12 85 3 187 12 225 20
39 8 95 15 125 15 30 1 69 5 85 9 23 6 15 8 -37 9 -38 0 -68 5 -68 9 0 12 55
38 108 52 45 12 51 20 28 40 -8 6 -27 42 -42 80 -15 38 -35 78 -46 90 -17 18
-60 26 -104 21 -7 -1 -14 5 -18 14 -4 11 -11 13 -29 6 -13 -5 -41 -5 -63 -1
-21 4 -55 11 -74 15 -19 4 -42 9 -50 12 -8 4 -22 5 -32 4 -9 -1 -32 5 -52 13
-21 9 -38 11 -41 5 -4 -5 -25 -8 -48 -7 -29 2 -41 -1 -39 -9 1 -7 -3 -13 -8
-13 -6 0 -10 8 -8 17 4 22 -20 25 -50 8z"/>
<path d="M2303 603 c-18 -7 -16 -33 2 -33 8 0 15 9 15 20 0 11 -1 20 -2 19 -2
0 -9 -3 -15 -6z"/>
<path d="M4160 190 c0 -5 5 -10 10 -10 6 0 10 5 10 10 0 6 -4 10 -10 10 -5 0
-10 -4 -10 -10z"/>
</g>
</svg>
