<?xml version="1.0" standalone="no"?>
<!DOCTYPE svg PUBLIC "-//W3C//DTD SVG 20010904//EN"
 "http://www.w3.org/TR/2001/REC-SVG-20010904/DTD/svg10.dtd">
<svg version="1.0" xmlns="http://www.w3.org/2000/svg"
 width="258.000000pt" height="73.000000pt" viewBox="0 0 258.000000 73.000000"
 preserveAspectRatio="xMidYMid meet">

<g transform="translate(0.000000,73.000000) scale(0.100000,-0.100000)"
fill="#000000" stroke="none">
<path d="M2388 582 c-25 -5 -23 -42 2 -42 13 0 20 -7 20 -20 0 -13 7 -20 20
-20 17 0 20 7 20 43 0 37 -3 42 -23 43 -12 0 -30 -1 -39 -4z"/>
<path d="M220 493 c-41 -13 -61 -29 -75 -60 -52 -108 83 -210 167 -126 17 17
31 44 35 66 l6 37 -52 0 c-44 0 -51 -3 -51 -20 0 -15 7 -20 25 -20 30 0 32
-11 7 -33 -57 -52 -139 26 -91 86 16 22 29 27 64 27 42 0 64 18 49 41 -5 9
-58 11 -84 2z"/>
<path d="M379 448 c-1 -29 -3 -64 -5 -78 -2 -14 -1 -42 2 -62 8 -52 39 -53 48
-3 9 45 30 45 72 0 21 -23 37 -33 48 -29 15 6 14 10 -4 39 -20 32 -20 32 0 50
21 19 26 65 10 95 -13 24 -62 40 -121 40 l-49 0 -1 -52z m120 -3 c17 -10 13
-52 -5 -59 -9 -3 -28 -6 -44 -6 -28 0 -30 7 -21 73 1 9 53 3 70 -8z"/>
<path d="M602 388 l3 -113 70 0 c85 -1 95 2 95 26 0 17 -8 19 -60 19 -57 0
-60 1 -60 25 0 23 3 25 50 25 43 0 50 3 50 20 0 17 -7 20 -50 20 -47 0 -50 2
-50 25 0 22 4 25 38 23 62 -2 72 1 72 22 0 18 -7 20 -80 20 l-81 0 3 -112z"/>
<path d="M809 488 c0 -7 -1 -57 -2 -110 -2 -101 2 -110 39 -103 11 2 43 4 72
4 45 1 52 4 52 21 0 16 -8 19 -57 22 -50 3 -58 6 -58 23 0 17 8 21 50 25 36 4
50 9 50 20 0 11 -14 16 -51 18 -48 3 -51 4 -46 27 4 23 9 25 58 25 47 0 54 2
54 20 0 18 -7 20 -80 20 -57 0 -80 -4 -81 -12z"/>
<path d="M1010 392 c0 -126 -5 -120 96 -112 97 8 141 64 114 144 -16 49 -52
68 -137 74 l-73 5 0 -111z m148 44 c9 -9 16 -32 16 -52 0 -45 -23 -64 -76 -64
l-38 0 0 69 0 69 41 -3 c23 -2 49 -11 57 -19z"/>
<path d="M1230 494 c0 -3 18 -36 40 -73 27 -45 40 -79 40 -103 0 -24 5 -38 16
-42 25 -10 34 2 34 45 0 24 9 54 23 77 13 20 32 52 41 70 16 32 16 32 -8 32
-19 0 -31 -11 -52 -51 l-28 -50 -30 50 c-23 37 -37 51 -53 51 -13 0 -23 -3
-23 -6z"/>
<path d="M1505 490 c-70 -29 -90 -122 -37 -180 46 -53 135 -42 167 20 8 16 15
40 15 55 0 23 -3 25 -50 25 -43 0 -50 -3 -50 -20 0 -15 7 -20 25 -20 14 0 25
-4 25 -9 0 -19 -32 -41 -59 -41 -35 0 -61 28 -61 67 0 42 27 63 83 63 43 0 47
2 47 25 0 23 -4 25 -42 24 -24 0 -52 -4 -63 -9z"/>
<path d="M1735 469 c-33 -64 -84 -189 -77 -190 4 0 14 -2 23 -4 10 -2 21 7 28
21 9 21 18 24 61 24 45 0 52 -3 60 -26 7 -18 15 -24 26 -20 9 3 20 6 24 6 5 0
-13 48 -39 108 -54 121 -77 139 -106 81z m51 -64 c19 -45 19 -45 -16 -45 -16
0 -30 3 -30 7 0 10 24 73 28 73 1 0 10 -16 18 -35z"/>
<path d="M1910 391 l0 -111 25 0 c22 0 24 4 27 58 l3 57 28 -47 c15 -27 33
-48 40 -48 7 0 26 24 42 53 l30 52 5 -65 c4 -49 9 -65 20 -65 12 0 16 20 18
113 2 103 1 112 -16 112 -12 0 -32 -23 -59 -71 l-41 -70 -39 68 c-27 47 -46
69 -61 71 -22 3 -22 1 -22 -107z"/>
<path d="M2208 403 c-4 -138 -10 -129 80 -128 71 1 77 3 80 23 3 21 -1 22 -57
22 -58 0 -61 1 -61 25 0 23 3 25 50 25 43 0 50 3 50 20 0 17 -7 20 -51 20 -47
0 -50 2 -47 23 3 19 9 22 55 23 59 0 66 4 57 28 -5 13 -21 16 -79 16 l-74 0
-3 -97z"/>
</g>
</svg>
